
<svg width="33px" height="49px" viewBox="0 0 33 49" version="1.1" xmlns="http://www.w3.org/2000/svg" xmlns:xlink="http://www.w3.org/1999/xlink">
    <!-- Generator: Sketch 49.3 (51167) - http://www.bohemiancoding.com/sketch -->
    <desc>Created with Sketch.</desc>
    <defs></defs>
    <g id="Desktop" stroke="none" stroke-width="1" fill="none" fill-rule="evenodd">
        <g id="Конференц-зал" transform="translate(-347.000000, -1775.000000)" stroke-width="2">
            <g id="Group-9" transform="translate(348.000000, 1775.000000)">
                <path d="M24.2124,0.9995 L6.2334,0.9995 C2.7904,0.9995 0.0004,3.7905 0.0004,7.2325 L0.0004,41.2245 C0.0004,44.6665 2.7904,47.4575 6.2334,47.4575 L24.2124,47.4575 C27.6544,47.4575 30.4454,44.6665 30.4454,41.2245 L30.4454,7.2325 C30.4454,3.7905 27.6544,0.9995 24.2124,0.9995 Z" id="Stroke-1" stroke="#32D69B" stroke-linecap="round" stroke-linejoin="round"></path>
                <path d="M20.7075,12.3364 C20.7075,15.3654 18.2525,17.8204 15.2235,17.8204 C12.1935,17.8204 9.7385,15.3654 9.7385,12.3364 C9.7385,9.3074 12.1935,6.8524 15.2235,6.8524 C18.2525,6.8524 20.7075,9.3074 20.7075,12.3364 Z" id="Stroke-3" stroke="#3B35A5"></path>
                <path d="M24.9047,31.6743 C24.9047,37.0213 20.5697,41.3563 15.2227,41.3563 C9.8757,41.3563 5.5417,37.0213 5.5417,31.6743 C5.5417,26.3263 9.8757,21.9923 15.2227,21.9923 C20.5697,21.9923 24.9047,26.3263 24.9047,31.6743 Z" id="Stroke-5" stroke="#32D69B"></path>
                <path d="M19.9077,31.6743 C19.9077,34.2613 17.8097,36.3593 15.2227,36.3593 C12.6367,36.3593 10.5387,34.2613 10.5387,31.6743 C10.5387,29.0863 12.6367,26.9893 15.2227,26.9893 C17.8097,26.9893 19.9077,29.0863 19.9077,31.6743 Z" id="Stroke-7" stroke="#32D69B"></path>
            </g>
        </g>
    </g>
</svg>