
<svg width="53px" height="50px" viewBox="0 0 53 50" version="1.1" xmlns="http://www.w3.org/2000/svg" xmlns:xlink="http://www.w3.org/1999/xlink">
    <!-- Generator: Sketch 49.3 (51167) - http://www.bohemiancoding.com/sketch -->
    <desc>Created with Sketch.</desc>
    <defs></defs>
    <g id="Desktop" stroke="none" stroke-width="1" fill="none" fill-rule="evenodd">
        <g id="Переговорные" transform="translate(-351.000000, -1614.000000)" stroke-width="2">
            <g id="Group-9" transform="translate(352.000000, 1615.000000)">
                <path d="M43.0244,13.0957 L30.8754,13.0957 C28.7484,13.0957 26.8834,14.2857 26.3224,16.0037 L23.7754,23.7917 L23.7754,44.9547 C23.7754,46.4997 25.2704,47.7517 27.1154,47.7517 L46.7844,47.7517 C48.6284,47.7517 50.1254,46.4997 50.1254,44.9547 L50.1254,23.7917 L47.5774,16.0037 C47.0154,14.2857 45.1514,13.0957 43.0244,13.0957 Z" id="Stroke-1" stroke="#32D69B"></path>
                <path d="M39.4883,20.1679 C39.4883,21.5699 38.3513,22.7069 36.9503,22.7069 C35.5483,22.7069 34.4113,21.5699 34.4113,20.1679 C34.4113,18.7659 35.5483,17.6299 36.9503,17.6299 C38.3513,17.6299 39.4883,18.7659 39.4883,20.1679 Z" id="Stroke-3" stroke="#32D69B"></path>
                <path d="M5.4834,9.4746 L5.4834,16.8576 C5.4834,21.2026 9.0054,24.7236 13.3504,24.7236 C17.6954,24.7236 21.2164,21.2026 21.2164,16.8576 L21.2164,9.6026 C21.2164,5.2576 24.7394,1.7366 29.0834,1.7366 C33.4274,1.7366 36.9504,5.2576 36.9504,9.6026 L36.9504,17.6296" id="Stroke-5" stroke="#32D69B" stroke-linecap="round"></path>
                <path d="M8.793,12.3564 L1.815,12.3564 C0.813,12.3564 0,11.5434 0,10.5414 L0,1.8154 C0,0.8124 0.813,0.0004 1.815,0.0004 L8.793,0.0004 C9.796,0.0004 10.608,0.8124 10.608,1.8154 L10.608,10.5414 C10.608,11.5434 9.796,12.3564 8.793,12.3564 Z" id="Stroke-7" stroke="#3B35A5"></path>
            </g>
        </g>
    </g>
</svg>