
<svg width="37px" height="51px" viewBox="0 0 37 51" version="1.1" xmlns="http://www.w3.org/2000/svg" xmlns:xlink="http://www.w3.org/1999/xlink">
    <!-- Generator: Sketch 49.3 (51167) - http://www.bohemiancoding.com/sketch -->
    <desc>Created with Sketch.</desc>
    <defs></defs>
    <g id="Desktop" stroke="none" stroke-width="1" fill="none" fill-rule="evenodd">
        <g id="Переговорные" transform="translate(-115.000000, -1411.000000)" stroke-width="2">
            <g id="Group-5" transform="translate(116.000000, 1412.000000)">
                <path d="M22.8395,15.653 C22.8395,18.854 20.2435,21.449 17.0425,21.449 C13.8405,21.449 11.2455,18.854 11.2455,15.653 C11.2455,12.451 13.8405,9.856 17.0425,9.856 C20.2435,9.856 22.8395,12.451 22.8395,15.653 Z" id="Stroke-1" stroke="#3B35A5"></path>
                <path d="M34.0846,17.0427 C34.0846,23.4527 26.1796,37.6567 21.1366,46.0637 C19.2826,49.1557 14.8026,49.1557 12.9476,46.0637 C7.9056,37.6567 -0.0004,23.4527 -0.0004,17.0427 C-0.0004,7.6307 7.6306,-0.0003 17.0426,-0.0003 C26.4546,-0.0003 34.0846,7.6307 34.0846,17.0427 Z" id="Stroke-3" stroke="#32D69B"></path>
            </g>
        </g>
    </g>
</svg>