
<svg width="56px" height="49px" viewBox="0 0 56 49" version="1.1" xmlns="http://www.w3.org/2000/svg" xmlns:xlink="http://www.w3.org/1999/xlink">
    <!-- Generator: Sketch 49.3 (51167) - http://www.bohemiancoding.com/sketch -->
    <desc>Created with Sketch.</desc>
    <defs>
        <polygon id="path-1" points="0 0.4148 22.1911 0.4148 22.1911 39.0498 0 39.0498"></polygon>
        <polygon id="path-3" points="0.070933502 0.217 48.852 0.217 48.852 48.9997 0.070933502 48.9997"></polygon>
    </defs>
    <g id="Desktop" stroke="none" stroke-width="1" fill="none" fill-rule="evenodd">
        <g id="Переговорные" transform="translate(-350.000000, -1412.000000)">
            <g id="Group-7" transform="translate(350.000000, 1411.000000)">
                <g id="Group-3" transform="translate(0.000000, 9.783000)">
                    <mask id="mask-2" fill="white">
                        <use xlink:href="#path-1"></use>
                    </mask>
                    <g id="Clip-2"></g>
                    <path d="M10.1871,35.8078 C8.2731,37.7218 5.1601,37.7218 3.2451,35.8078 C1.3311,33.8928 1.3311,30.7768 3.2451,28.8628 L20.2261,11.8808 C22.8461,9.2608 22.8461,4.9988 20.2261,2.3798 C17.6071,-0.2402 13.3441,-0.2402 10.7251,2.3798 L0.2631,12.8418 L1.5421,14.1208 L12.0041,3.6578 C13.9191,1.7438 17.0351,1.7438 18.9481,3.6578 C20.8621,5.5718 20.8621,8.6868 18.9481,10.6018 L1.9641,27.5848 C-0.6549,30.2038 -0.6549,34.4658 1.9641,37.0858 C3.2751,38.3948 4.9971,39.0498 6.7151,39.0498 C8.4361,39.0498 10.1571,38.3948 11.4661,37.0858" id="Fill-1" fill="#3A30A8" mask="url(#mask-2)"></path>
                </g>
                <g id="Group-6" transform="translate(7.000000, 0.783000)">
                    <mask id="mask-4" fill="white">
                        <use xlink:href="#path-3"></use>
                    </mask>
                    <g id="Clip-5"></g>
                    <path d="M32.6324,6.2287 C32.6274,6.2237 32.6224,6.2177 32.6174,6.2117 L32.5444,6.1407 L32.2004,5.7947 C32.1774,5.7717 32.1534,5.7497 32.1284,5.7297 L30.7194,4.3407 C32.5054,2.8427 34.7374,2.0247 37.0984,2.0247 C39.7544,2.0247 42.2524,3.0597 44.1304,4.9387 C46.0104,6.8167 47.0444,9.3147 47.0444,11.9707 C47.0444,14.3347 46.2234,16.5727 44.7204,18.3587 L32.6324,6.2287 Z M37.0984,21.9167 C34.4414,21.9167 31.9444,20.8827 30.0654,19.0037 C28.1874,17.1257 27.1524,14.6277 27.1524,11.9707 C27.1524,9.6247 27.9604,7.4047 29.4424,5.6237 L31.2664,7.4187 L43.4394,19.6337 C41.6584,21.1137 39.4404,21.9167 37.0984,21.9167 Z M31.2344,25.5287 C29.5254,24.7907 27.9864,23.7467 26.6534,22.4157 C25.3224,21.0827 24.2784,19.5437 23.5414,17.8347 L25.8174,15.2917 C26.3624,17.1597 27.3724,18.8707 28.7864,20.2847 C30.1984,21.6977 31.9104,22.7067 33.7774,23.2517 L31.2344,25.5287 Z M7.4034,46.8497 L4.8124,44.2587 L2.2194,41.6667 L22.2284,19.3037 C23.0264,20.9237 24.0804,22.3967 25.3764,23.6927 C26.6724,24.9907 28.1454,26.0427 29.7664,26.8417 L7.4034,46.8497 Z M6.7294,48.7337 C6.9034,48.9117 7.1374,48.9997 7.3684,48.9997 C7.5834,48.9997 7.7994,48.9217 7.9714,48.7677 L32.0234,27.2497 C32.0264,27.2477 36.0154,23.6757 36.0154,23.6757 C36.3734,23.7087 36.7344,23.7257 37.0984,23.7257 C39.9224,23.7257 42.5954,22.7367 44.7194,20.9207 L44.9564,21.1607 C45.1334,21.3367 45.3644,21.4247 45.5984,21.4247 C45.8274,21.4247 46.0594,21.3377 46.2354,21.1637 C46.5894,20.8097 46.5914,20.2387 46.2374,19.8837 L46.0024,19.6467 C47.8464,17.5127 48.8524,14.8207 48.8524,11.9707 C48.8524,8.8327 47.6304,5.8797 45.4094,3.6607 C43.1904,1.4397 40.2364,0.2167 37.0984,0.2167 C34.2504,0.2167 31.5574,1.2227 29.4244,3.0657 L29.1834,2.8287 C28.8264,2.4767 28.2544,2.4817 27.9034,2.8367 C27.5534,3.1927 27.5574,3.7647 27.9134,4.1167 L28.1504,4.3487 C26.3344,6.4727 25.3434,9.1457 25.3434,11.9707 C25.3434,12.3347 25.3614,12.6967 25.3934,13.0537 L0.3014,41.0977 C-0.0186,41.4567 -0.0036,41.9997 0.3354,42.3397 L6.7294,48.7337 Z" id="Fill-4" fill="#32D69B" mask="url(#mask-4)"></path>
                </g>
            </g>
        </g>
    </g>
</svg>