
<svg width="23px" height="19px" viewBox="0 0 23 19" version="1.1" xmlns="http://www.w3.org/2000/svg" xmlns:xlink="http://www.w3.org/1999/xlink">
    <!-- Generator: Sketch 49.3 (51167) - http://www.bohemiancoding.com/sketch -->
    <desc>Created with Sketch.</desc>
    <defs></defs>
    <g id="Desktop" stroke="none" stroke-width="1" fill="none" fill-rule="evenodd">
        <g id="Переговорные" transform="translate(-305.000000, -1022.000000)">
            <g id="Group-7" transform="translate(305.000000, 1022.000000)">
                <path d="M19.2927,3.1399 L16.3277,3.1399 L15.3037,0.7499 L7.1087,0.7499 L6.0847,3.1399 L3.1197,3.1399 C1.8117,3.1399 0.7497,4.2009 0.7497,5.5099 L0.7497,14.9249 C0.7497,16.2339 1.8117,17.2949 3.1197,17.2949 L19.2927,17.2949 C20.6027,17.2949 21.6627,16.2339 21.6627,14.9249 L21.6627,5.5099 C21.6627,4.2009 20.6027,3.1399 19.2927,3.1399 Z" id="Stroke-1" stroke="#32D69B" stroke-width="1.5" stroke-linecap="round" stroke-linejoin="round"></path>
                <path d="M15.3708,9.3636 C15.3708,11.6636 13.5068,13.5286 11.2068,13.5286 C8.9068,13.5286 7.0418,11.6636 7.0418,9.3636 C7.0418,7.0636 8.9068,5.1996 11.2068,5.1996 C13.5068,5.1996 15.3708,7.0636 15.3708,9.3636 Z" id="Stroke-3" stroke="#32D69B" stroke-width="1.5" stroke-linecap="round" stroke-linejoin="round"></path>
                <path d="M19.3434,6.222 C19.3434,6.785 18.8864,7.243 18.3224,7.243 C17.7574,7.243 17.2994,6.785 17.2994,6.222 C17.2994,5.658 17.7574,5.2 18.3224,5.2 C18.8864,5.2 19.3434,5.658 19.3434,6.222" id="Fill-5" fill="#32D69B"></path>
            </g>
        </g>
    </g>
</svg>