
<svg width="59px" height="35px" viewBox="0 0 59 35" version="1.1" xmlns="http://www.w3.org/2000/svg" xmlns:xlink="http://www.w3.org/1999/xlink">
    <!-- Generator: Sketch 49.3 (51167) - http://www.bohemiancoding.com/sketch -->
    <desc>Created with Sketch.</desc>
    <defs>
        <polygon id="path-1" points="0 0.7832 58.8739 0.7832 58.8739 26.9992 0 26.9992"></polygon>
    </defs>
    <g id="Desktop" stroke="none" stroke-width="1" fill="none" fill-rule="evenodd">
        <g id="Конференц-зал" transform="translate(-563.000000, -1781.000000)">
            <g id="Group-12" transform="translate(563.000000, 1781.000000)">
                <path d="M15.1238,22.9481 L7.6658,22.9481 C5.8908,22.9481 4.4498,21.5091 4.4498,19.7321 L4.4498,0.9001 L21.6988,0.9001 L21.6988,14.2981" id="Stroke-1" stroke="#3A30A8" stroke-width="1.8"></path>
                <polyline id="Stroke-3" stroke="#3A30A8" stroke-width="1.8" points="7.9988 26.621 7.9988 22.948 15.6238 22.948"></polyline>
                <path d="M21.699,13.9901 L21.699,4.6721 L26.478,4.6721 C28.854,4.6721 30.78,6.5971 30.78,8.9731 L30.78,9.3311" id="Stroke-5" stroke="#3A30A8" stroke-width="1.8"></path>
                <path d="M21.699,13.8495 L21.699,8.3545 L25.843,8.3545 C26.829,8.3545 27.629,9.1545 27.629,10.1405" id="Stroke-7" stroke="#3A30A8" stroke-width="1.8"></path>
                <g id="Group-11" transform="translate(0.000000, 7.169300)">
                    <mask id="mask-2" fill="white">
                        <use xlink:href="#path-1"></use>
                    </mask>
                    <g id="Clip-10"></g>
                    <path d="M56.2869,22.0552 L13.3389,22.0552 L11.0539,22.0552 L2.5879,22.0552 C2.1109,22.0552 1.7239,21.6682 1.7239,21.1932 C1.7239,20.7172 2.1109,20.3302 2.5879,20.3302 L56.2869,20.3302 C56.7629,20.3302 57.1489,20.7172 57.1489,21.1932 C57.1489,21.6682 56.7629,22.0552 56.2869,22.0552 Z M53.7569,24.0682 C53.7569,24.7342 53.2159,25.2752 52.5499,25.2752 L6.3239,25.2752 C5.6589,25.2752 5.1169,24.7342 5.1169,24.0682 L5.1169,23.7812 L11.0539,23.7812 L13.3389,23.7812 L53.7569,23.7812 L53.7569,24.0682 Z M24.3719,18.6062 L18.3899,18.6062 C17.3509,17.9112 16.7929,16.9972 16.8499,16.0662 C16.8509,16.0382 16.8529,16.0112 16.8569,15.9802 C16.9869,14.7402 18.2129,13.0902 20.2609,11.3702 C21.1999,13.4552 22.6499,16.3322 24.3719,18.6062 Z M23.7379,7.0152 C23.7679,6.9992 23.7979,6.9832 23.8249,6.9632 C23.8289,6.9612 23.8319,6.9592 23.8359,6.9572 C24.9729,6.3002 26.1239,5.8272 27.0659,5.5032 C27.2729,7.3612 27.6089,10.1172 28.0479,12.7312 C28.5679,15.8382 29.0299,17.5842 29.4439,18.6062 L26.6019,18.6062 C24.2209,15.9602 22.1779,11.4982 21.3919,9.6582 C21.2889,9.4132 21.1999,9.2022 21.1339,9.0262 C21.9099,8.2202 22.8169,7.5572 23.7379,7.0152 Z M35.9889,2.5072 C39.9949,2.5152 42.4739,3.4762 43.3529,3.8892 L43.3129,4.2732 C43.1369,5.9692 42.7619,9.2822 42.2429,12.3902 C41.3889,17.5162 40.7299,18.4612 40.5979,18.6062 L31.3849,18.6062 C31.2499,18.4582 30.5929,17.5062 29.7389,12.3902 C29.2209,9.2822 28.8459,5.9692 28.6689,4.2722 L28.6619,4.2052 C28.6619,4.2032 28.6609,4.2012 28.6609,4.2002 L28.6289,3.8892 C29.5089,3.4762 31.9879,2.5152 35.9889,2.5072 Z M44.9159,5.5032 C45.4559,5.6892 46.8849,6.1592 47.6119,6.5612 C48.9129,7.2802 50.0059,8.0562 50.8509,9.0322 C50.7819,9.2022 50.6939,9.4132 50.5909,9.6572 C49.8039,11.4982 47.7579,15.9642 45.3829,18.6062 L42.5389,18.6062 C42.9519,17.5842 43.4149,15.8382 43.9349,12.7312 C44.3729,10.1172 44.7099,7.3612 44.9159,5.5032 Z M55.1259,15.9802 C55.2249,16.9382 54.6519,17.8852 53.5489,18.6062 L47.6119,18.6062 C49.3289,16.3352 50.7809,13.4562 51.7219,11.3702 C53.7689,13.0892 54.9959,14.7402 55.1259,15.9802 Z M2.5879,18.6062 C1.1609,18.6062 -0.0001,19.7662 -0.0001,21.1932 C-0.0001,22.6192 1.1609,23.7812 2.5879,23.7812 L3.3919,23.7812 L3.3919,24.0682 C3.3919,25.6852 4.7079,26.9992 6.3239,26.9992 L52.5499,26.9992 C54.1669,26.9992 55.4809,25.6852 55.4809,24.0682 L55.4809,23.7812 L56.2869,23.7812 C57.7129,23.7812 58.8739,22.6192 58.8739,21.1932 C58.8739,19.7662 57.7129,18.6062 56.2869,18.6062 L56.0499,18.6062 C56.6649,17.7602 56.9449,16.7982 56.8409,15.8012 C56.6069,13.5612 54.4219,11.3242 52.4329,9.7222 C52.4369,9.7102 52.4429,9.6962 52.4489,9.6832 C52.7059,9.0532 52.5659,8.3262 52.0919,7.8302 C51.7229,7.4462 50.3599,6.1312 48.1079,5.0012 C47.2539,4.5732 45.7279,3.9502 45.0709,3.7372 C45.0169,3.1332 44.6489,2.5902 44.0859,2.3272 C42.8639,1.7532 40.1869,0.7912 35.9899,0.7832 C34.5809,0.7852 32.4659,0.9822 31.3989,1.1612 C29.9109,1.4122 28.9989,1.7022 28.1859,2.0342 C27.5409,2.2982 26.6239,2.5072 26.8109,3.6182 C21.8739,5.5032 20.6749,7.0162 19.8909,7.8312 C19.4159,8.3262 19.2769,9.0532 19.5339,9.6832 C19.5389,9.6962 19.5449,9.7102 19.5509,9.7232 C17.7509,11.1702 15.7939,13.1382 15.2629,15.1562 C15.2629,15.1562 15.0799,15.8992 15.1799,16.8812 C15.2859,17.4892 15.5379,18.0712 15.9199,18.6062 L2.5879,18.6062 Z" id="Fill-9" fill="#32D69B" mask="url(#mask-2)"></path>
                </g>
            </g>
        </g>
    </g>
</svg>