
<svg width="50px" height="50px" viewBox="0 0 50 50" version="1.1" xmlns="http://www.w3.org/2000/svg" xmlns:xlink="http://www.w3.org/1999/xlink">
    <!-- Generator: Sketch 49.3 (51167) - http://www.bohemiancoding.com/sketch -->
    <desc>Created with Sketch.</desc>
    <defs></defs>
    <g id="Desktop" stroke="none" stroke-width="1" fill="none" fill-rule="evenodd">
        <g id="Конференц-зал" transform="translate(-109.000000, -1508.000000)">
            <g id="Group-5" transform="translate(109.000000, 1508.000000)">
                <path d="M47.6833333,27.7098039 C47.6833333,28.1039216 47.3607843,28.4254902 46.9676471,28.4254902 L43.6715686,28.4254902 L43.5058824,29.1333333 C43.0313725,31.1833333 42.2254902,33.1303922 41.1098039,34.922549 L40.7245098,35.5401961 L43.0529412,37.8676471 C43.3352941,38.1460784 43.3352941,38.5980392 43.0529412,38.8803922 L38.8803922,43.0529412 C38.5990196,43.3313725 38.1460784,43.3352941 37.8686275,43.0529412 L35.5401961,40.7245098 L34.922549,41.1098039 C33.1313725,42.2254902 31.1843137,43.0303922 29.1333333,43.504902 L28.4264706,43.6705882 L28.4264706,46.9666667 C28.4264706,47.3607843 28.1039216,47.6823529 27.7107843,47.6823529 L21.804902,47.6823529 C21.4107843,47.6823529 21.0872549,47.3607843 21.0872549,46.9666667 L21.0872549,43.6705882 L20.3803922,43.504902 C18.3303922,43.0303922 16.3823529,42.2254902 14.5960784,41.1098039 L13.9784314,40.7245098 L11.65,43.0529412 C11.3686275,43.3352941 10.9156863,43.3313725 10.6333333,43.0529412 L6.46176471,38.8803922 C6.18431373,38.5980392 6.18431373,38.1460784 6.46176471,37.8676471 L8.78921569,35.5401961 L8.40490196,34.922549 C7.28921569,33.1303922 6.48333333,31.1833333 6.00882353,29.1333333 L5.84313725,28.4254902 L2.54901961,28.4254902 C2.15490196,28.4254902 1.83627451,28.1039216 1.83627451,27.7098039 L1.83627451,21.804902 C1.83627451,21.4098039 2.15490196,21.0882353 2.54901961,21.0882353 L5.84313725,21.0882353 L6.00882353,20.3794118 C6.4872549,18.3294118 7.28921569,16.3813725 8.40490196,14.5960784 L8.78921569,13.9784314 L6.46176471,11.6490196 C6.18431373,11.3676471 6.18431373,10.9156863 6.46176471,10.6343137 L10.6333333,6.46078431 C10.9156863,6.18333333 11.3686275,6.17843137 11.65,6.46078431 L13.9784314,8.78823529 L14.5960784,8.40392157 C16.3823529,7.28921569 18.3303922,6.48333333 20.3803922,6.00784314 L21.0872549,5.84313725 L21.0872549,2.54803922 C21.0872549,2.15392157 21.4107843,1.83529412 21.804902,1.83529412 L27.7107843,1.83529412 C28.1039216,1.83529412 28.4264706,2.15392157 28.4264706,2.54803922 L28.4264706,5.84313725 L29.1333333,6.00784314 C31.1843137,6.4872549 33.1313725,7.28921569 34.922549,8.40392157 L35.5401961,8.78823529 L37.8686275,6.46078431 C38.1460784,6.17843137 38.6029412,6.18333333 38.8803922,6.46078431 L43.0529412,10.6343137 C43.3352941,10.9156863 43.3352941,11.3676471 43.0529412,11.6490196 L40.7245098,13.9784314 L41.1098039,14.5960784 C42.2254902,16.3813725 43.0313725,18.3294118 43.5058824,20.3794118 L43.6715686,21.0882353 L46.9676471,21.0882353 C47.3607843,21.0882353 47.6833333,21.4098039 47.6833333,21.804902 L47.6833333,27.7098039 Z M46.9676471,19.2568627 L45.1176471,19.2568627 C44.6421569,17.5019608 43.9490196,15.822549 43.045098,14.2509804 L44.3519608,12.9431373 C44.8303922,12.4647059 45.095098,11.8205882 45.095098,11.1441176 C45.095098,10.4588235 44.8303922,9.81960784 44.3519608,9.34019608 L40.1754902,5.1627451 C39.2117647,4.2 37.5323529,4.2 36.5705882,5.1627451 L35.2637255,6.46960784 C33.6882353,5.56568627 32.0137255,4.87058824 30.2578431,4.40196078 L30.2578431,2.54803922 C30.2578431,1.14117647 29.1156863,0 27.7107843,0 L21.804902,0 C20.3990196,0 19.2578431,1.14117647 19.2578431,2.54803922 L19.2578431,4.40196078 C17.5029412,4.87058824 15.8284314,5.56568627 14.2519608,6.46960784 L12.9441176,5.1627451 C11.9813725,4.2 10.3019608,4.2 9.34019608,5.1627451 L5.1627451,9.34019608 C4.68431373,9.81960784 4.41862745,10.4627451 4.41862745,11.1441176 C4.41862745,11.8254902 4.68431373,12.4647059 5.1627451,12.9431373 L6.47058824,14.2509804 C5.56470588,15.822549 4.87156863,17.5019608 4.40196078,19.2568627 L2.54901961,19.2568627 C1.14215686,19.2568627 0,20.3980392 0,21.804902 L0,27.7098039 C0,29.1166667 1.14215686,30.2578431 2.54901961,30.2578431 L4.40196078,30.2578431 C4.87156863,32.0127451 5.56470588,33.6872549 6.47058824,35.2627451 L5.1627451,36.5696078 C4.68431373,37.0529412 4.41862745,37.6941176 4.41862745,38.3745098 C4.41862745,39.0539216 4.68431373,39.6960784 5.1627451,40.1794118 L9.34019608,44.3519608 C10.3019608,45.3137255 11.9813725,45.3137255 12.9441176,44.3519608 L14.2519608,43.045098 C15.8284314,43.9480392 17.5058824,44.6421569 19.2578431,45.1166667 L19.2578431,46.9666667 C19.2578431,48.3715686 20.3990196,49.5127451 21.804902,49.5127451 L27.7107843,49.5127451 C29.1156863,49.5127451 30.2578431,48.3715686 30.2578431,46.9666667 L30.2578431,45.1166667 C32.0137255,44.6421569 33.6882353,43.9480392 35.2637255,43.045098 L36.5705882,44.3519608 C37.5323529,45.3137255 39.2117647,45.3137255 40.1794118,44.3519608 L44.3519608,40.1794118 C44.8303922,39.6960784 45.1,39.0539216 45.1,38.3745098 C45.1,37.6941176 44.8303922,37.0529412 44.3519608,36.5696078 L43.045098,35.2627451 C43.9490196,33.6872549 44.6421569,32.0127451 45.1176471,30.2578431 L46.9676471,30.2578431 C48.372549,30.2578431 49.5137255,29.1166667 49.5137255,27.7098039 L49.5137255,21.804902 C49.5137255,20.3980392 48.372549,19.2568627 46.9676471,19.2568627 Z" id="Fill-3" fill="#32D69B"></path>
                <path d="M25.002978,36.140517 C18.8563684,36.140517 13.85927,31.1458246 13.85927,25.0014892 C13.85927,18.8541754 18.8563684,13.8574974 25.002978,13.8574974 C31.145617,13.8574974 36.14073,18.8541754 36.14073,25.0014892 C36.14073,31.1458246 31.145617,36.140517 25.002978,36.140517 M25.002978,12 C17.8359041,12 12,17.834587 12,25.0014892 C12,32.1703769 17.8359041,38 25.002978,38 C32.1700519,38 38,32.1703769 38,25.0014892 C38,17.834587 32.1700519,12 25.002978,12" id="Fill-1" fill="#32D69B"></path>
                <path d="M30.594,24.797 C30.594,27.998 27.999,30.594 24.797,30.594 C21.596,30.594 19,27.998 19,24.797 C19,21.596 21.596,19 24.797,19 C27.999,19 30.594,21.596 30.594,24.797 Z" id="Stroke-1" stroke="#3B35A5" stroke-width="2"></path>
            </g>
        </g>
    </g>
</svg>