
<svg width="9px" height="18px" viewBox="0 0 9 18" version="1.1" xmlns="http://www.w3.org/2000/svg" xmlns:xlink="http://www.w3.org/1999/xlink">
    <!-- Generator: Sketch 49.3 (51167) - http://www.bohemiancoding.com/sketch -->
    <desc>Created with Sketch.</desc>
    <defs></defs>
    <g id="-" stroke="none" stroke-width="1" fill="none" fill-rule="evenodd">
        <g id="Footer" transform="translate(-1055.000000, -26.000000)" fill="#3DD89D">
            <g id="Group-6" transform="translate(1046.000000, 21.000000)">
                <path d="M9,10.8805188 L10.928,10.8805188 L10.928,9.09352256 C10.928,8.30627068 10.949,7.09028947 11.549,6.33767293 C12.182,5.54106015 13.05,5 14.543,5 C16.976,5 18,5.33043985 18,5.33043985 L17.518,8.05352632 C17.518,8.05352632 16.715,7.83260902 15.964,7.83260902 C15.214,7.83260902 14.543,8.09003383 14.543,8.80333459 L14.543,10.8805188 L17.618,10.8805188 L17.403,13.5418233 L14.543,13.5418233 L14.543,22.7857143 L10.928,22.7857143 L10.928,13.5418233 L9,13.5418233 L9,10.8805188 Z" id="Fill-1"></path>
            </g>
        </g>
    </g>
</svg>