<?xml version="1.0" encoding="UTF-8"?>
<svg width="87px" height="20px" viewBox="0 0 87 20" version="1.1" xmlns="http://www.w3.org/2000/svg" xmlns:xlink="http://www.w3.org/1999/xlink">
    <!-- Generator: Sketch 49.3 (51167) - http://www.bohemiancoding.com/sketch -->
    <title>Page 1</title>
    <desc>Created with Sketch.</desc>
    <defs>
        <polygon id="path-1" points="0 0.143299799 14.1228209 0.143299799 14.1228209 14.1026559 0 14.1026559"></polygon>
    </defs>
    <g id="-" stroke="none" stroke-width="1" fill="none" fill-rule="evenodd">
        <g id="Footer" transform="translate(-45.000000, -23.000000)">
            <g id="Page-1" transform="translate(45.000000, 23.000000)">
                <g id="Group-3" transform="translate(0.000000, 4.761905)">
                    <mask id="mask-2" fill="white">
                        <use xlink:href="#path-1"></use>
                    </mask>
                    <g id="Clip-2"></g>
                    <path d="M11.5304444,1.34692153 C12.6918772,2.14973843 13.459145,3.2432998 13.8324627,4.62820926 L11.343893,4.62820926 C11.0255951,3.89038229 10.503982,3.3016499 9.77819392,2.86140845 C9.05219096,2.42156942 8.19164748,2.20124748 7.19613365,2.20124748 C6.2835793,2.20124748 5.46451556,2.40205231 4.73872752,2.80325956 C4.01272456,3.2044668 3.44576309,3.7738833 3.03805805,4.51171026 C2.63013809,5.24953722 2.42639303,6.11674044 2.42639303,7.11331992 C2.42639303,8.16160966 2.63379175,9.06140845 3.04858918,9.81191147 C3.46317169,10.5628169 4.04711191,11.1354527 4.80083967,11.5302213 C5.5541376,11.9251911 6.42886586,12.1223742 7.42437969,12.1223742 C8.64083226,12.1223742 9.68470331,11.7698592 10.5557779,11.0642254 C11.4268525,10.358994 11.9519044,9.39138833 12.1317932,8.16160966 L6.7607038,8.16160966 L6.7607038,6.53082495 L14.1228209,6.53082495 L14.1228209,8.64712274 C13.9569019,9.65657948 13.573268,10.5724748 12.9719192,11.3942052 C12.3703555,12.216338 11.575148,12.8730785 10.5869415,13.364829 C9.59830509,13.8569819 8.46803582,14.1026559 7.19613365,14.1026559 C5.77206744,14.1026559 4.51392021,13.8050704 3.42169195,13.209497 C2.32946369,12.6145272 1.48589896,11.7891751 0.89164254,10.7340443 C0.297171196,9.6793159 -6.44762846e-05,8.47227364 -6.44762846e-05,7.11331992 C-6.44762846e-05,5.75416499 0.297171196,4.54752515 0.89164254,3.49239437 C1.48589896,2.43746479 2.32581003,1.61573441 3.41137574,1.0265996 C4.49651161,0.437665996 5.75122011,0.143299799 7.17550124,0.143299799 C8.91743552,0.143299799 10.3692265,0.544507042 11.5304444,1.34692153" id="Fill-1" fill="#07041A" mask="url(#mask-2)"></path>
                </g>
                <path d="M18.4525416,11.7023998 L21.079172,11.7023998 C22.9969709,11.7023998 23.9559784,10.8797403 23.9559784,9.23379216 C23.9559784,8.45160506 23.7230858,7.84095389 23.2575167,7.40246777 C22.7917316,6.96419135 22.0658328,6.74484344 21.079172,6.74484344 L18.4525416,6.74484344 L18.4525416,11.7023998 Z M23.8099344,19.047619 L20.1411206,13.3414278 L18.4525416,13.3414278 L18.4525416,19.047619 L16.076087,19.047619 L16.076087,4.76190476 L21.2666959,4.76190476 C22.9481456,4.76190476 24.2234375,5.15991847 25.0921397,5.95573618 C25.9604098,6.75197329 26.395085,7.8040464 26.395085,9.11237491 C26.395085,10.2321817 26.0718871,11.1494166 25.4257075,11.8642895 C24.7793119,12.5795818 23.844501,13.0377798 22.6217071,13.2401419 L26.4782609,19.047619 L23.8099344,19.047619 Z" id="Fill-4" fill="#07041A"></path>
                <polygon id="Fill-6" fill="#07041A" points="61.4673913 4.76190476 58.067246 19.047619 55.3624667 19.047619 52.4836957 7.99948833 49.6051249 19.047619 46.9001453 19.047619 43.5 4.76190476 45.91486 4.76190476 48.2718563 16.3766493 51.266555 4.76190476 53.7008363 4.76190476 56.6953348 16.3766493 59.0523311 4.76190476"></polygon>
                <path d="M65.5426817,0 L65.5426817,8.39526322 C65.5426817,9.65088778 65.8075155,10.5859097 66.3375803,11.2001213 C66.8674466,11.8147481 67.6115225,12.1218539 68.5692126,12.1218539 C69.5143955,12.1218539 70.2519201,11.8147481 70.7819849,11.2001213 C71.3118512,10.5859097 71.5770821,9.65088778 71.5770821,8.39526322 L71.5770821,0 L73.7608696,0 L73.7608696,8.39526322 C73.7608696,10.3321684 73.281826,11.7981366 72.3239374,12.79296 C71.3662473,13.7881987 70.1018344,14.2857143 68.5310956,14.2857143 C66.9726654,14.2857143 65.7211567,13.7881987 64.7765693,12.79296 C63.8311879,11.7981366 63.3586957,10.3321684 63.3586957,8.39526322 L63.3586957,0 L65.5426817,0 Z" id="Fill-8" fill="#07041A"></path>
                <path d="M84.5120404,9.15284733 C84.5120404,8.34360871 84.2726468,7.7264568 83.7938596,7.30139158 C83.3144056,6.87653606 82.54599,6.66389861 81.4881682,6.66389861 L79.0431083,6.66389861 L79.0431083,11.621455 L81.4881682,11.621455 C83.5042312,11.621455 84.5120404,10.7987955 84.5120404,9.15284733 Z M79.0431083,13.5033175 L79.0431083,19.047619 L76.5978261,19.047619 L76.5978261,4.76190476 L81.7455663,4.76190476 C83.4895608,4.76190476 84.8018912,5.15341772 85.6812236,5.93560482 C86.5605561,6.71821133 87,7.7904158 87,9.15284733 C87,10.501858 86.5496644,11.5642064 85.6489933,12.3398928 C84.7480998,13.1157889 83.4468834,13.5033175 81.7455663,13.5033175 L79.0431083,13.5033175 Z" id="Fill-10" fill="#07041A"></path>
                <path d="M38.245896,17.495492 C37.5598066,17.4611472 37.0411798,17.2579409 36.6691083,16.8734025 C35.9081174,16.0865401 35.8715801,14.6544873 35.8926906,13.5765123 C36.3138845,14.3423182 36.8061232,15.1228432 37.1997111,15.417431 C37.9377647,15.9700133 38.9863853,15.7892946 39.5242957,15.0382079 C39.8255254,14.6172805 39.9024568,14.1064025 39.7822896,13.641522 C40.1848089,13.3837321 40.4740626,12.9570805 40.5382059,12.4421139 C40.6524864,11.5231878 40.007197,10.6715201 39.0931555,10.5695081 C38.5469228,10.5085871 37.4970842,10.8091035 36.5952217,11.1196372 C37.2078305,10.3922647 37.8598185,9.52853553 38.0023139,8.99864533 C38.2426482,8.10466005 37.6919498,7.18818714 36.8010486,6.95901781 C36.3017054,6.83063392 35.8015503,6.94552523 35.4158787,7.22846043 C35.0304102,6.94552523 34.5302551,6.83063392 34.0311149,6.95901781 C33.1400106,7.18818714 32.5893122,8.10466005 32.8296465,8.99864533 C32.9699092,9.51994935 33.6032224,10.3644619 34.2071029,11.0844747 C33.3295986,10.7868203 32.3380168,10.5108358 31.8124885,10.5695081 C30.898447,10.6715201 30.2531576,11.5231878 30.3674381,12.4421139 C30.4315814,12.9570805 30.7208351,13.3837321 31.1235574,13.641522 C31.0031872,14.1064025 31.0801186,14.6172805 31.3813483,15.0382079 C31.9192587,15.7892946 32.9678793,15.9700133 33.7059329,15.417431 C34.0885596,15.1310205 34.5647625,14.3850446 34.97804,13.640091 C34.9573356,14.8664842 35.0214788,16.4884553 36.0148875,17.5153219 C36.2168576,17.7242524 36.4496815,17.8949539 36.7084874,18.0321284 C36.3871621,18.0981603 36.0567025,18.140069 35.7183264,18.1541749 C35.6310429,18.1578547 35.5439623,18.1596946 35.4574907,18.1596946 C32.145587,18.1596946 29.3947339,15.5265982 29.256907,12.1628585 C29.1152235,8.71162147 31.77859,5.7980431 35.2055862,5.6553489 C35.2928698,5.6516691 35.3799504,5.65003364 35.466422,5.65003364 C38.7783257,5.64982921 41.5291788,8.28292558 41.6672086,11.6466653 C41.7711369,14.1822472 40.360188,16.4261032 38.245896,17.495492 Z M43.4930589,11.5706163 C43.3144321,7.21844322 39.7889881,3.80952381 35.467031,3.80952381 L35.466625,3.80952381 C35.3551862,3.80952381 35.2417176,3.81177257 35.1300758,3.81647453 C30.7019575,4.00066862 27.2479642,7.77899836 27.4308537,12.2389076 C27.6094806,16.5910806 31.1351275,20 35.4572877,20 C35.5689294,20 35.6821951,19.9977512 35.7938368,19.9930493 C40.2221582,19.8088552 43.6759484,16.0305254 43.4930589,11.5706163 Z" id="Fill-12" fill="#FFFFFF"></path>
            </g>
        </g>
    </g>
</svg>