
<svg width="17px" height="17px" viewBox="0 0 17 17" version="1.1" xmlns="http://www.w3.org/2000/svg" xmlns:xlink="http://www.w3.org/1999/xlink">
    <!-- Generator: Sketch 49.3 (51167) - http://www.bohemiancoding.com/sketch -->
    <desc>Created with Sketch.</desc>
    <defs></defs>
    <g id="-" stroke="none" stroke-width="1" fill="none" fill-rule="evenodd">
        <g id="Footer" transform="translate(-1092.000000, -27.000000)" fill="#3DD89D">
            <g id="Group-8" transform="translate(1086.000000, 21.000000)">
                <g id="Group-5" transform="translate(6.000000, 6.000000)">
                    <path d="M13.0365714,2.94261905 C12.4739524,2.94261905 12.0165714,3.39919048 12.0165714,3.96342857 C12.0165714,4.52604762 12.4739524,4.98342857 13.0365714,4.98342857 C13.6,4.98342857 14.057381,4.52604762 14.057381,3.96342857 C14.057381,3.39919048 13.6,2.94261905 13.0365714,2.94261905 M8.5,11.3333333 C6.93519048,11.3333333 5.66666667,10.0648095 5.66666667,8.5 C5.66666667,6.936 6.93519048,5.66666667 8.5,5.66666667 C10.064,5.66666667 11.3333333,6.936 11.3333333,8.5 C11.3333333,10.0648095 10.064,11.3333333 8.5,11.3333333 M8.5,4.13585714 C6.0892381,4.13585714 4.13504762,6.09004762 4.13504762,8.5 C4.13504762,10.9107619 6.0892381,12.8649524 8.5,12.8649524 C10.9099524,12.8649524 12.8641429,10.9107619 12.8641429,8.5 C12.8641429,6.09004762 10.9099524,4.13585714 8.5,4.13585714 M15.4181905,11.9348095 C15.3809524,12.7637619 15.2425238,13.2138571 15.1259524,13.513381 C14.9721429,13.9100476 14.7875714,14.1925714 14.4904762,14.4904762 C14.1925714,14.788381 13.9092381,14.9713333 13.5125714,15.1267619 C13.2130476,15.2425238 12.7629524,15.3809524 11.9348095,15.419 C11.0378571,15.4602857 10.7690952,15.468381 8.5,15.468381 C6.23009524,15.468381 5.96133333,15.4602857 5.06438095,15.419 C4.2362381,15.3809524 3.78614286,15.2425238 3.48661905,15.1267619 C3.08995238,14.9713333 2.80661905,14.788381 2.50871429,14.4904762 C2.21161905,14.1925714 2.02704762,13.9100476 1.8732381,13.513381 C1.75666667,13.2138571 1.61904762,12.7637619 1.581,11.9348095 C1.53971429,11.0386667 1.53080952,10.7699048 1.53080952,8.5 C1.53080952,6.23090476 1.53971429,5.96133333 1.581,5.066 C1.61904762,4.23704762 1.75666667,3.78695238 1.8732381,3.48742857 C2.02704762,3.0907619 2.21161905,2.80742857 2.50871429,2.51033333 C2.80661905,2.21242857 3.08995238,2.02866667 3.48661905,1.87485714 C3.78614286,1.75747619 4.2362381,1.61904762 5.06438095,1.581 C5.96133333,1.54052381 6.23009524,1.53161905 8.5,1.53161905 C10.7690952,1.53161905 11.0378571,1.54052381 11.9348095,1.581 C12.7629524,1.61904762 13.2130476,1.75747619 13.5125714,1.87485714 C13.9092381,2.02866667 14.1925714,2.21242857 14.4904762,2.51033333 C14.7875714,2.80742857 14.9721429,3.0907619 15.1259524,3.48742857 C15.2425238,3.78695238 15.3809524,4.23704762 15.4181905,5.066 C15.4594762,5.96133333 15.468381,6.23090476 15.468381,8.5 C15.468381,10.7699048 15.4594762,11.0386667 15.4181905,11.9348095 M16.9481905,4.99557143 C16.9069048,4.09133333 16.763619,3.47285714 16.5539524,2.93209524 C16.3361905,2.37352381 16.0455714,1.89995238 15.5728095,1.42719048 C15.1008571,0.954428571 14.6264762,0.663809524 14.0670952,0.446857143 C13.5263333,0.236380952 12.9094762,0.0922857143 12.0044286,0.0518095238 C11.0969524,0.0105238095 10.8079524,0 8.5,0 C6.1912381,0 5.9022381,0.0105238095 4.9947619,0.0518095238 C4.08971429,0.0922857143 3.47285714,0.236380952 2.93209524,0.446857143 C2.37271429,0.663809524 1.89833333,0.954428571 1.42638095,1.42719048 C0.953619048,1.89995238 0.663,2.37352381 0.445238095,2.93209524 C0.235571429,3.47285714 0.0922857143,4.09133333 0.051,4.99557143 C0.0089047619,5.9022381 0,6.19204762 0,8.5 C0,10.8087619 0.0089047619,11.0977619 0.051,12.0044286 C0.0922857143,12.9094762 0.235571429,13.5271429 0.445238095,14.0679048 C0.663,14.6272857 0.953619048,15.1008571 1.42638095,15.573619 C1.89833333,16.046381 2.37271429,16.337 2.93209524,16.5531429 C3.47285714,16.763619 4.08971429,16.9077143 4.9947619,16.949 C5.9022381,16.9902857 6.1912381,17 8.5,17 C10.8079524,17 11.0969524,16.9902857 12.0044286,16.949 C12.9094762,16.9077143 13.5263333,16.763619 14.0670952,16.5531429 C14.6264762,16.337 15.1008571,16.046381 15.5728095,15.573619 C16.0455714,15.1008571 16.3361905,14.6272857 16.5539524,14.0679048 C16.763619,13.5271429 16.9069048,12.9094762 16.9481905,12.0044286 C16.9902857,11.0977619 17,10.8087619 17,8.5 C17,6.19204762 16.9902857,5.9022381 16.9481905,4.99557143" id="Fill-3"></path>
                </g>
            </g>
        </g>
    </g>
</svg>