
<svg width="200px" height="46px" viewBox="0 0 200 46" version="1.1" xmlns="http://www.w3.org/2000/svg" xmlns:xlink="http://www.w3.org/1999/xlink">
    <!-- Generator: Sketch 49.3 (51167) - http://www.bohemiancoding.com/sketch -->
    <desc>Created with Sketch.</desc>
    <defs>
        <polygon id="path-1" points="0 0.331022535 32.85585 0.331022535 32.85585 32.5771352 0 32.5771352"></polygon>
    </defs>
    <g id="Desktop" stroke="none" stroke-width="1" fill="none" fill-rule="evenodd">
        <g id="О-нас" transform="translate(-500.000000, -5722.000000)">
            <g id="Group-5-Copy" transform="translate(500.000000, 5722.000000)">
                <g id="Group-3" transform="translate(0.000000, 11.000000)">
                    <mask id="mask-2" fill="white">
                        <use xlink:href="#path-1"></use>
                    </mask>
                    <g id="Clip-2"></g>
                    <path d="M26.82485,3.11138873 C29.52685,4.96589577 31.31185,7.49202254 32.18035,10.6911634 L26.39085,10.6911634 C25.65035,8.9867831 24.43685,7.62681127 22.74835,6.60985352 C21.05935,5.59382535 19.05735,5.08488169 16.74135,5.08488169 C14.61835,5.08488169 12.71285,5.54874085 11.02435,6.47552958 C9.33535,7.40231831 8.01635,8.71767042 7.06785,10.4220507 C6.11885,12.126431 5.64485,14.1296704 5.64485,16.431769 C5.64485,18.8533183 6.12735,20.9318535 7.09235,22.6655155 C8.05685,24.400107 9.41535,25.7228958 11.16885,26.6348113 C12.92135,27.5471915 14.95635,28.0026845 17.27235,28.0026845 C20.10235,28.0026845 22.53085,27.1883746 24.55735,25.5583606 C26.58385,23.9292761 27.80535,21.694107 28.22385,18.8533183 L15.72835,18.8533183 L15.72835,15.0862056 L32.85585,15.0862056 L32.85585,19.9748535 C32.46985,22.3066986 31.57735,24.4224169 30.17835,26.3206141 C28.77885,28.2197408 26.92885,29.7368113 24.62985,30.8727549 C22.32985,32.0096282 19.70035,32.5771352 16.74135,32.5771352 C13.42835,32.5771352 10.50135,31.8897127 7.96035,30.513938 C5.41935,29.1395577 3.45685,27.2329944 2.07435,24.7956423 C0.69135,22.3592197 -0.00015,19.5709521 -0.00015,16.431769 C-0.00015,13.2921211 0.69135,10.5047831 2.07435,8.06743099 C3.45685,5.63054366 5.41085,3.73234648 7.93635,2.37144507 C10.46085,1.01100845 13.37985,0.331022535 16.69335,0.331022535 C20.74585,0.331022535 24.12335,1.25781127 26.82485,3.11138873" id="Fill-1" fill="#07041A" mask="url(#mask-2)"></path>
                </g>
                <path d="M42.4829799,27.0325436 L48.5431681,27.0325436 C52.9679329,27.0325436 55.1805645,25.1322001 55.1805645,21.3300599 C55.1805645,19.5232077 54.6432325,18.1126035 53.5690669,17.0997005 C52.4944028,16.087282 50.8196017,15.5805883 48.5431681,15.5805883 L42.4829799,15.5805883 L42.4829799,27.0325436 Z M54.8436105,44 L46.3788864,30.8186983 L42.4829799,30.8186983 L42.4829799,44 L37,44 L37,11 L48.975825,11 C52.8552826,11 55.797649,11.9194117 57.8019274,13.7577506 C59.8052088,15.5970583 60.8080957,18.0273472 60.8080957,21.049586 C60.8080957,23.6363396 60.0624104,25.7551524 58.5715383,27.4065087 C57.0801678,29.0588339 54.9233629,30.1172714 52.1021205,30.5847278 L61,44 L54.8436105,44 Z" id="Fill-4" fill="#07041A"></path>
                <polygon id="Fill-6" fill="#07041A" points="141 11 133.241169 44 127.069101 44 120.5 18.478818 113.931356 44 107.758831 44 100 11 105.510497 11 110.888955 37.8300599 117.722592 11 123.277408 11 130.110589 37.8300599 135.489046 11"></polygon>
                <path d="M151.038914,0 L151.038914,19.393058 C151.038914,22.2935508 151.649942,24.4534514 152.872913,25.8722801 C154.095425,27.2920682 155.812165,28.0014826 158.021757,28.0014826 C160.202493,28.0014826 161.904117,27.2920682 163.127087,25.8722801 C164.3496,24.4534514 164.961544,22.2935508 164.961544,19.393058 L164.961544,0 L170,0 L170,19.393058 C170,23.8673091 168.894746,27.2536955 166.684696,29.5517377 C164.475104,31.8507391 161.557837,33 157.933813,33 C154.338187,33 151.450694,31.8507391 149.271332,29.5517377 C147.090139,27.2536955 146,23.8673091 146,19.393058 L146,0 L151.038914,0 Z" id="Fill-8" fill="#07041A"></path>
                <path d="M194.259755,21.1430773 C194.259755,19.2737361 193.707423,17.8481152 192.602761,16.8662145 C191.49656,15.8847983 189.723663,15.3936058 187.283046,15.3936058 L181.64178,15.3936058 L181.64178,26.845561 L187.283046,26.845561 C191.934527,26.845561 194.259755,24.9452175 194.259755,21.1430773 Z M181.64178,31.1926634 L181.64178,44 L176,44 L176,11 L187.876918,11 C191.90068,11 194.928501,11.9043949 196.957306,13.7112471 C198.986111,15.5190682 200,17.9958605 200,21.1430773 C200,24.2592919 198.960981,26.7133169 196.882944,28.5051524 C194.804393,30.2974723 191.802214,31.1926634 187.876918,31.1926634 L181.64178,31.1926634 Z" id="Fill-10" fill="#07041A"></path>
                <path d="M87.9073901,40.2764625 C86.3283175,40.1979747 85.1346695,39.7335884 84.2783263,38.8548051 C82.5268639,37.0565931 82.4427713,33.7839312 82.4913581,31.3204414 C83.4607592,33.070533 84.5936736,34.8542622 85.499538,35.5274821 C87.198209,36.7902951 89.6116672,36.3772996 90.8496974,34.6608457 C91.5429943,33.6989027 91.720056,32.5313964 91.4434847,31.4690077 C92.3699051,30.8798818 93.0356384,29.9048575 93.1832676,28.7280074 C93.4462906,26.627991 91.9611215,24.6816799 89.8574045,24.4485523 C88.6002198,24.3093299 86.1839585,24.9960983 84.1082723,25.7057591 C85.5182253,24.0434991 87.0188114,22.0696238 87.3467726,20.8586689 C87.8999152,18.8156496 86.6324525,16.7212394 84.5819941,16.1975201 C83.4327283,15.9041252 82.2815937,16.1666856 81.3939494,16.8132758 C80.5067723,16.1666856 79.3556377,15.9041252 78.2068391,16.1975201 C76.1559135,16.7212394 74.8884509,18.8156496 75.4415934,20.8586689 C75.7644157,22.0500019 77.2220211,23.9799614 78.6118852,25.6254025 C76.5922608,24.9451747 74.3100805,24.314469 73.1005483,24.4485523 C70.9968313,24.6816799 69.5116622,26.627991 69.7746852,28.7280074 C69.9223145,29.9048575 70.5880477,30.8798818 71.5149353,31.4690077 C71.2378968,32.5313964 71.4149585,33.6989027 72.1082554,34.6608457 C73.3462857,36.3772996 75.7597439,36.7902951 77.4584148,35.5274821 C78.3390514,34.8729497 79.4350585,33.1681756 80.3862395,31.4657373 C80.338587,34.2684066 80.4862163,37.9750874 82.7726012,40.3217799 C83.2374465,40.7992474 83.7733034,41.1893506 84.3689595,41.5028347 C83.6294116,41.6537369 82.8688405,41.7495107 82.0900494,41.7817468 C81.8891615,41.7901562 81.6887408,41.7943609 81.4897216,41.7943609 C73.8671927,41.7943609 67.5359528,35.7769612 67.2187367,28.0898266 C66.8926442,20.202735 73.0225291,13.5443514 80.9099497,13.2182532 C81.1108376,13.2098438 81.3112583,13.2061063 81.5102775,13.2061063 C89.1328064,13.2056391 95.4640464,19.2230388 95.7817296,26.9101734 C96.0209264,32.7047237 92.7735497,37.8325947 87.9073901,40.2764625 Z M99.9840247,26.7363789 C99.5729052,16.7903835 91.4589017,9 81.5116791,9 L81.5107447,9 C81.2542622,9 80.9931079,9.00513908 80.7361583,9.01588444 C70.5445998,9.4368221 62.5950441,18.0714168 63.0159744,28.2636211 C63.4270939,38.2096165 71.5415646,46 81.4892544,46 C81.7462041,46 82.0068912,45.9948609 82.2638409,45.9841156 C92.4558665,45.5631779 100.404955,36.9285832 99.9840247,26.7363789 Z" id="Fill-12" fill="#3DD89D"></path>
            </g>
        </g>
    </g>
</svg>