
<svg width="60px" height="74px" viewBox="0 0 60 74" version="1.1" xmlns="http://www.w3.org/2000/svg" xmlns:xlink="http://www.w3.org/1999/xlink">
    <!-- Generator: Sketch 49.3 (51167) - http://www.bohemiancoding.com/sketch -->
    <desc>Created with Sketch.</desc>
    <defs>
        <polygon id="path-1" points="0 74 59.589 74 59.589 0 0 0"></polygon>
    </defs>
    <g id="Desktop" stroke="none" stroke-width="1" fill="none" fill-rule="evenodd">
        <g id="О-нас" transform="translate(-188.000000, -5708.000000)">
            <g id="Group-10" transform="translate(188.000000, 5708.000000)">
                <polyline id="Stroke-1" stroke="#32D69B" stroke-width="2" stroke-linecap="round" stroke-linejoin="round" points="5.7471 42.498 5.7471 1 43.1681 1 58.5891 16.421 58.5891 73 5.7471 73 5.7471 61.005"></polyline>
                <polygon id="Stroke-3" stroke="#32D69B" stroke-width="2" stroke-linecap="round" stroke-linejoin="round" points="43.168 16.4209 58.589 16.4209 43.168 0.9999"></polygon>
                <mask id="mask-2" fill="white">
                    <use xlink:href="#path-1"></use>
                </mask>
                <g id="Clip-6"></g>
                <polygon id="Stroke-5" stroke="#32D69B" stroke-width="2" stroke-linecap="round" stroke-linejoin="round" mask="url(#mask-2)" points="1 61.005 37.23 61.005 37.23 42.498 1 42.498"></polygon>
                <path d="M13.4287,50.3174 C13.4157,49.9294 13.2787,49.5434 13.0157,49.2674 C12.7537,48.9674 12.3167,48.7434 11.9157,48.7434 L9.3667,48.7434 L9.3667,51.8924 L11.9157,51.8924 C12.3287,51.8924 12.8037,51.6674 13.0907,51.2924 C13.3037,51.0174 13.4417,50.6794 13.4287,50.3174 M14.2407,52.0914 C13.7157,52.7794 12.8537,53.2164 11.9287,53.2164 L9.3667,53.2164 L9.3667,56.4164 L7.9547,56.4164 L7.9547,47.4184 L11.9287,47.4184 C12.2417,47.4184 12.5667,47.4674 12.8537,47.5684 C13.3907,47.7434 13.8657,48.0684 14.2027,48.5174 C14.6157,49.0174 14.8537,49.6684 14.8657,50.3174 C14.8777,50.9554 14.6277,51.6044 14.2407,52.0914" id="Fill-7" fill="#3A30A8" mask="url(#mask-2)"></path>
                <path d="M21.9658,51.917 C21.9658,51.355 21.8648,50.83 21.6408,50.355 C21.1538,49.393 20.1658,48.756 19.0538,48.743 L17.6048,48.743 L17.6048,55.092 L19.0538,55.079 C20.1038,55.066 21.1538,54.454 21.6408,53.467 C21.8648,53.004 21.9778,52.467 21.9658,51.917 M23.4028,51.917 C23.4028,52.654 23.2398,53.417 22.8908,54.116 C22.1648,55.517 20.6788,56.416 19.1288,56.416 L16.1798,56.416 L16.1798,47.418 L19.1288,47.418 C20.6658,47.418 22.1648,48.306 22.8908,49.718 C23.2398,50.405 23.4028,51.167 23.4028,51.917" id="Fill-8" fill="#3A30A8" mask="url(#mask-2)"></path>
                <polygon id="Fill-9" fill="#3A30A8" mask="url(#mask-2)" points="26.3174 48.8174 26.3174 51.2174 29.5294 51.2174 29.5294 52.6174 26.3174 52.6174 26.3174 56.4164 24.9054 56.4164 24.9054 47.4184 30.2784 47.4184 30.2784 48.8174"></polygon>
            </g>
        </g>
    </g>
</svg>