
<svg width="86px" height="61px" viewBox="0 0 86 61" version="1.1" xmlns="http://www.w3.org/2000/svg" xmlns:xlink="http://www.w3.org/1999/xlink">
    <!-- Generator: Sketch 49.3 (51167) - http://www.bohemiancoding.com/sketch -->
    <desc>Created with Sketch.</desc>
    <defs></defs>
    <g id="Desktop" stroke="none" stroke-width="1" fill="none" fill-rule="evenodd" stroke-linecap="round" stroke-linejoin="round">
        <g id="О-нас" transform="translate(-937.000000, -5715.000000)" stroke="#32D69B" stroke-width="2">
            <g id="Group-12" transform="translate(938.000000, 5715.000000)">
                <polygon id="Stroke-1" points="0 49.7585 73.334 49.7585 73.334 0.9995 0 0.9995"></polygon>
                <polyline id="Stroke-3" points="7.3337 40.1677 19.6687 27.8327 32.0017 40.1657"></polyline>
                <polyline id="Stroke-4" points="28.1667 36.3327 46.4997 17.9987 66.1667 37.6657"></polyline>
                <g id="Group-11" transform="translate(5.000000, 5.758500)">
                    <path d="M20.1676,8.5752 C20.1676,11.6122 17.7046,14.0752 14.6676,14.0752 C11.6306,14.0752 9.1676,11.6122 9.1676,8.5752 C9.1676,5.5372 11.6306,3.0752 14.6676,3.0752 C17.7046,3.0752 20.1676,5.5372 20.1676,8.5752 Z" id="Stroke-5"></path>
                    <polyline id="Stroke-7" points="68.3337 0.2412 73.3337 0.2412 73.3337 49.0002 -0.0003 49.0002 -0.0003 44.0002"></polyline>
                    <polyline id="Stroke-9" points="73.3337 5.2412 78.3337 5.2412 78.3337 54.0002 4.9997 54.0002 4.9997 49.0002"></polyline>
                </g>
            </g>
        </g>
    </g>
</svg>