
<svg width="20px" height="17px" viewBox="0 0 20 17" version="1.1" xmlns="http://www.w3.org/2000/svg" xmlns:xlink="http://www.w3.org/1999/xlink">
    <!-- Generator: Sketch 49.3 (51167) - http://www.bohemiancoding.com/sketch -->
    <desc>Created with Sketch.</desc>
    <defs></defs>
    <g id="Desktop" stroke="none" stroke-width="1" fill="none" fill-rule="evenodd">
        <g id="Шаблон-мероприятия" transform="translate(-953.000000, -1092.000000)" fill="#FFFFFF">
            <path d="M963.653674,1105.32293 C962.885541,1106.08029 962.125695,1106.82428 961.372398,1107.57501 C961.109021,1107.83748 960.812747,1107.98243 960.434973,1107.9618 C960.177683,1107.9478 960.033255,1107.83214 959.954416,1107.58398 C959.377932,1105.76971 958.792034,1103.9585 958.21816,1102.1434 C958.162241,1101.96667 958.078029,1101.88175 957.902649,1101.82742 C956.543348,1101.40631 955.186759,1100.97607 953.831909,1100.54054 C953.631306,1100.47605 953.428197,1100.39316 953.254146,1100.27615 C952.951221,1100.07257 952.90799,1099.74886 953.184618,1099.51448 C953.44022,1099.29789 953.743247,1099.11654 954.053693,1098.99212 C955.771275,1098.30392 957.497606,1097.63801 959.220816,1096.96416 C963.366046,1095.34321 967.511379,1093.72242 971.656353,1092.10069 C972.450937,1091.7898 973.06835,1092.22097 972.99391,1093.08912 C972.944898,1093.6614 972.79781,1094.22622 972.679832,1094.7912 C971.761285,1099.18871 970.839156,1103.58544 969.918204,1107.98243 C969.916413,1107.99089 969.915851,1107.99959 969.913958,1108.00799 C969.688746,1109.01389 968.967425,1109.28891 968.144959,1108.67572 C966.717204,1107.61124 965.293031,1106.5419 963.867119,1105.47493 C963.799688,1105.42449 963.729956,1105.37716 963.653674,1105.32293 L963.653674,1105.32293 Z M960.498771,1106.70774 C960.520974,1106.60452 960.536374,1106.55688 960.540876,1106.50825 C960.631483,1105.51936 960.726182,1104.53084 960.806403,1103.54107 C960.824258,1103.32141 960.888926,1103.1592 961.056632,1103.00668 C963.220339,1101.0389 965.377345,1099.06356 967.536038,1097.09019 C968.150126,1096.52884 968.76672,1095.9703 969.374822,1095.40242 C969.438671,1095.3428 969.452535,1095.22823 969.489627,1095.13916 C969.395695,1095.1122 969.290406,1095.04388 969.210185,1095.06653 C969.024828,1095.11889 968.838039,1095.1936 968.675449,1095.29718 C965.465854,1097.34256 962.260403,1099.39452 959.050705,1101.4397 C958.887399,1101.54374 958.840791,1101.62939 958.906277,1101.82872 C959.414512,1103.37553 959.908013,1104.92732 960.406834,1106.4773 C960.426378,1106.53806 960.453953,1106.59612 960.498771,1106.70774 L960.498771,1106.70774 Z" id="telegramm_red"></path>
        </g>
    </g>
</svg>