
<svg width="12px" height="13px" viewBox="0 0 12 13" version="1.1" xmlns="http://www.w3.org/2000/svg" xmlns:xlink="http://www.w3.org/1999/xlink">
    <!-- Generator: Sketch 49.3 (51167) - http://www.bohemiancoding.com/sketch -->
    <desc>Created with Sketch.</desc>
    <defs></defs>
    <g id="Desktop" stroke="none" stroke-width="1" fill="none" fill-rule="evenodd">
        <g id="Форма-забронировать-конференц-зал" transform="translate(-434.000000, -568.000000)" fill="#3DD89D">
            <g id="Group-12" transform="translate(375.000000, 19.000000)">
                <g id="Group-Copy" transform="translate(45.000000, 538.000000)">
                    <path d="M17.8689961,24 C17.8424501,24 17.8160859,23.9992777 17.7895399,23.9974721 C17.3449857,23.9691232 16.9506143,23.7044133 16.7580651,23.3055428 L14.1216494,17.8459462 C13.8270982,17.2365356 14.0858305,16.5052429 14.6992972,16.2129064 C15.3127638,15.9203893 16.0487783,16.1775155 16.342966,16.786926 L18.0306356,20.2814218 L23.7347481,11.5573707 C24.1054827,10.9903931 24.8684068,10.8295087 25.4391454,11.197683 C26.0095203,11.5660379 26.1717053,12.3242349 25.8009707,12.8912125 L18.9019255,23.442773 C18.6737392,23.7918073 18.2840952,24 17.8689961,24" id="Fill-1"></path>
                </g>
            </g>
        </g>
    </g>
</svg>