
<svg width="19px" height="15px" viewBox="0 0 19 15" version="1.1" xmlns="http://www.w3.org/2000/svg" xmlns:xlink="http://www.w3.org/1999/xlink">
    <!-- Generator: Sketch 49.3 (51167) - http://www.bohemiancoding.com/sketch -->
    <desc>Created with Sketch.</desc>
    <defs></defs>
    <g id="Desktop" stroke="none" stroke-width="1" fill="none" fill-rule="evenodd">
        <g id="Шаблон-мероприятия" transform="translate(-759.000000, -1094.000000)" fill="#FFFFFF">
            <path d="M759,1107.29844 C760.7252,1108.37375 762.7734,1109 764.9755,1109 C772.1461,1109 776.06675,1103.22875 776.06675,1098.22438 C776.06675,1098.06031 776.06295,1097.89812 776.05535,1097.73594 C776.81725,1097.20156 777.47845,1096.535 778,1095.77562 C777.30175,1096.0775 776.5503,1096.28 775.7618,1096.37 C776.56645,1095.90406 777.183,1095.15969 777.4756,1094.27656 C776.72225,1094.70969 775.8872,1095.02469 774.9999,1095.19438 C774.2893,1094.45937 773.27565,1094 772.15465,1094 C770.00195,1094 768.25585,1095.69406 768.25585,1097.78469 C768.25585,1098.08281 768.291,1098.37063 768.3575,1098.64812 C765.118,1098.49062 762.24425,1096.98312 760.32335,1094.69187 C759.988,1095.2525 759.79515,1095.90125 759.79515,1096.59594 C759.79515,1097.90937 760.48295,1099.06906 761.5289,1099.74781 C760.88955,1099.73 760.28915,1099.55844 759.76285,1099.27437 L759.76285,1099.32219 C759.76285,1101.15594 761.10805,1102.68781 762.8893,1103.03562 C762.56345,1103.12281 762.2186,1103.16781 761.8633,1103.16781 C761.61155,1103.16781 761.3674,1103.14531 761.1299,1103.10031 C761.62485,1104.60594 763.06505,1105.70094 764.7703,1105.73 C763.4365,1106.74625 761.75785,1107.35 759.93005,1107.35 C759.6156,1107.35 759.3059,1107.335 759,1107.29844" id="twi_red-copy"></path>
        </g>
    </g>
</svg>