
<svg width="19px" height="10px" viewBox="0 0 19 10" version="1.1" xmlns="http://www.w3.org/2000/svg" xmlns:xlink="http://www.w3.org/1999/xlink">
    <!-- Generator: Sketch 49.3 (51167) - http://www.bohemiancoding.com/sketch -->
    <desc>Created with Sketch.</desc>
    <defs></defs>
    <g id="Desktop" stroke="none" stroke-width="1" fill="none" fill-rule="evenodd">
        <g id="Главная" transform="translate(-366.000000, -3104.000000)" fill="#4A90E2">
            <g id="Group-9" transform="translate(327.000000, 2832.000000)">
                <path d="M48.2961716,281.957949 L49.4319626,281.957949 C49.4319626,281.957949 49.7747796,281.923288 49.9498779,281.749367 C50.1115587,281.589062 50.1061917,281.288877 50.1061917,281.288877 C50.1061917,281.288877 50.0840528,279.88327 50.7911548,279.675926 C51.4881936,279.471676 52.3838114,281.034494 53.3324283,281.635482 C54.0502642,282.090401 54.5956854,281.990752 54.5956854,281.990752 L57.1329336,281.957949 C57.1329336,281.957949 58.4599238,281.882438 57.8306433,280.91999 C57.778986,280.841385 57.4636748,280.207593 55.9441436,278.905967 C54.3528287,277.543686 54.5661669,277.764028 56.482856,275.407113 C57.6495071,273.972416 58.116436,273.096001 57.9701853,272.720924 C57.8313142,272.363178 56.9732654,272.457876 56.9732654,272.457876 L54.1160099,272.473968 C54.1160099,272.473968 53.9040135,272.447354 53.7470288,272.534005 C53.5940694,272.6188 53.4954508,272.81686 53.4954508,272.81686 C53.4954508,272.81686 53.0426104,273.927234 52.4401649,274.871732 C51.1681864,276.864711 50.6589924,276.969931 50.4510213,276.846143 C49.9673206,276.557718 50.0880781,275.688111 50.0880781,275.069792 C50.0880781,273.138088 50.4060727,272.332851 49.4702024,272.124269 C49.1595874,272.055567 48.9308191,272.009765 48.1365035,272.002338 C47.1174447,271.992435 46.2546998,272.004814 45.766303,272.225774 C45.4409288,272.372463 45.1900216,272.699881 45.3429811,272.718449 C45.5314969,272.741968 45.959515,272.824906 46.1862706,273.109617 C46.478772,273.477266 46.4687089,274.30231 46.4687089,274.30231 C46.4687089,274.30231 46.6370984,276.575668 46.0755763,276.858522 C45.6904942,277.051631 45.1625158,276.656748 44.0280666,274.848213 C43.4470891,273.922282 43.008337,272.898559 43.008337,272.898559 C43.008337,272.898559 42.9238068,272.707308 42.77286,272.604564 C42.5897112,272.480777 42.3341079,272.441165 42.3341079,272.441165 L39.6190779,272.457876 C39.6190779,272.457876 39.2118569,272.468398 39.0622519,272.631797 C38.9287478,272.777248 39.0515179,273.078051 39.0515179,273.078051 C39.0515179,273.078051 41.176849,277.665617 43.5832767,279.977348 C45.7904545,282.09721 48.2961716,281.957949 48.2961716,281.957949" id="vk_red"></path>
            </g>
        </g>
    </g>
</svg>