
<svg width="24px" height="13px" viewBox="0 0 24 13" version="1.1" xmlns="http://www.w3.org/2000/svg" xmlns:xlink="http://www.w3.org/1999/xlink">
    <!-- Generator: Sketch 49.3 (51167) - http://www.bohemiancoding.com/sketch -->
    <desc>Created with Sketch.</desc>
    <defs></defs>
    <g id="Desktop" stroke="none" stroke-width="1" fill="none" fill-rule="evenodd">
        <g id="Шаблон-мероприятия" transform="translate(-951.000000, -1039.000000)" fill="#FFFFFF">
            <path d="M962.742533,1051.94533 L964.177216,1051.94533 C964.177216,1051.94533 964.610248,1051.90027 964.831425,1051.67418 C965.035653,1051.46578 965.028874,1051.07554 965.028874,1051.07554 C965.028874,1051.07554 965.000909,1049.24825 965.89409,1048.9787 C966.77456,1048.71318 967.905867,1050.74484 969.10412,1051.52613 C970.01086,1052.11752 970.699813,1051.98798 970.699813,1051.98798 L973.904758,1051.94533 C973.904758,1051.94533 975.580956,1051.84717 974.786076,1050.59599 C974.720824,1050.4938 974.322537,1049.66987 972.403129,1047.97776 C970.393047,1046.20679 970.662527,1046.49324 973.083608,1043.42925 C974.557272,1041.56414 975.147077,1040.4248 974.962339,1039.9372 C974.786923,1039.47213 973.703072,1039.59524 973.703072,1039.59524 L970.093907,1039.61616 C970.093907,1039.61616 969.826122,1039.58156 969.627826,1039.69421 C969.434614,1039.80444 969.310043,1040.06192 969.310043,1040.06192 C969.310043,1040.06192 968.738034,1041.5054 967.97705,1042.73325 C966.370341,1045.32412 965.727148,1045.46091 965.464448,1045.29999 C964.853458,1044.92503 965.005993,1043.79454 965.005993,1042.99073 C965.005993,1040.47951 965.407671,1039.43271 964.225519,1039.16155 C963.833163,1039.07224 963.544193,1039.01269 962.540846,1039.00304 C961.253614,1038.99017 960.163831,1039.00626 959.546909,1039.29351 C959.13591,1039.4842 958.818975,1039.90984 959.012187,1039.93398 C959.250312,1039.96456 959.790966,1040.07238 960.077394,1040.4425 C960.44687,1040.92045 960.434159,1041.993 960.434159,1041.993 C960.434159,1041.993 960.646861,1044.94837 959.93757,1045.31608 C959.451151,1045.56712 958.78423,1045.05377 957.351242,1042.70268 C956.617376,1041.49897 956.063163,1040.16813 956.063163,1040.16813 C956.063163,1040.16813 955.956388,1039.9195 955.765718,1039.78593 C955.534372,1039.62501 955.211505,1039.57351 955.211505,1039.57351 L951.781993,1039.59524 C951.781993,1039.59524 951.267609,1039.60892 951.078634,1039.82134 C950.909997,1040.01042 951.065075,1040.40147 951.065075,1040.40147 C951.065075,1040.40147 953.749704,1046.3653 956.789402,1049.37055 C959.577416,1052.12637 962.742533,1051.94533 962.742533,1051.94533" id="vk_red"></path>
        </g>
    </g>
</svg>