
<svg width="18px" height="11px" viewBox="0 0 18 11" version="1.1" xmlns="http://www.w3.org/2000/svg" xmlns:xlink="http://www.w3.org/1999/xlink">
    <!-- Generator: Sketch 49.3 (51167) - http://www.bohemiancoding.com/sketch -->
    <desc>Created with Sketch.</desc>
    <defs></defs>
    <g id="-" stroke="none" stroke-width="1" fill="none" fill-rule="evenodd">
        <g id="Footer" transform="translate(-1010.000000, -30.000000)" fill="#3DD89D">
            <g id="Group-4" transform="translate(1006.000000, 21.000000)">
                <path d="M12.8064144,19.6336555 L13.8826379,19.6336555 C13.8826379,19.6336555 14.2075892,19.5967676 14.3733806,19.4103865 C14.5259088,19.2405079 14.5221193,18.9191947 14.5221193,18.9191947 C14.5221193,18.9191947 14.5003295,17.4174681 15.1701271,17.1961406 C15.8304508,16.9796667 16.6793032,18.647389 17.5774192,19.2900154 C18.257638,19.7753827 18.7749074,19.6686019 18.7749074,19.6686019 L21.17841,19.6336555 C21.17841,19.6336555 22.4355831,19.5521138 21.8396811,18.5250764 C21.7904174,18.4406225 21.4919927,17.7640204 20.0519754,16.3758697 C18.5446941,14.9197676 18.7474333,15.1546854 20.5626131,12.638541 C21.6682054,11.1067216 22.1096844,10.1709333 21.9723143,9.77001989 C21.8406285,9.38852114 21.0268292,9.48947756 21.0268292,9.48947756 L18.320165,9.50598005 C18.320165,9.50598005 18.1193205,9.47782874 17.9705819,9.57101927 C17.8256328,9.6612976 17.7318422,9.87194704 17.7318422,9.87194704 C17.7318422,9.87194704 17.3036265,11.0581849 16.7333038,12.0667783 C15.5272893,14.1955995 15.0450729,14.3082047 14.8480179,14.1752141 C14.3904335,13.8674912 14.504119,12.938498 14.504119,12.2783984 C14.504119,10.2155871 14.8053858,9.35551616 13.9186383,9.13418864 C13.6240032,9.05944207 13.4080006,9.01090533 12.655781,9.00216872 C11.6894535,8.99246137 10.8728121,9.00605166 10.4095434,9.2419402 C10.1016449,9.39919923 9.86479996,9.74769299 10.0088017,9.76807842 C10.1878565,9.79234679 10.5923877,9.88068365 10.8083903,10.1854944 C11.0850252,10.5776712 11.0755514,11.4590983 11.0755514,11.4590983 C11.0755514,11.4590983 11.2347112,13.8869059 10.7022837,14.1878336 C10.3384899,14.3955709 9.83732595,13.9733013 8.76299721,12.0415392 C8.21256952,11.0523605 7.79761715,9.95931316 7.79761715,9.95931316 C7.79761715,9.95931316 7.71708986,9.75545887 7.57403551,9.64576585 C7.400665,9.51374592 7.15813576,9.47200433 7.15813576,9.47200433 L4.58599949,9.48947756 C4.58599949,9.48947756 4.2004159,9.50112637 4.0592563,9.67488789 C3.9323074,9.83020545 4.04883512,10.1515186 4.04883512,10.1515186 C4.04883512,10.1515186 6.06201728,15.0498461 8.34141318,17.5184245 C10.4322805,19.7821779 12.8064144,19.6336555 12.8064144,19.6336555" id="Fill-6"></path>
            </g>
        </g>
    </g>
</svg>