
<svg width="17px" height="11px" viewBox="0 0 17 11" version="1.1" xmlns="http://www.w3.org/2000/svg" xmlns:xlink="http://www.w3.org/1999/xlink">
    <!-- Generator: Sketch 49.3 (51167) - http://www.bohemiancoding.com/sketch -->
    <desc>Created with Sketch.</desc>
    <defs></defs>
    <g id="-" stroke="none" stroke-width="1" fill="none" fill-rule="evenodd">
        <g id="Footer" transform="translate(-1133.000000, -30.000000)" fill="#3DD89D">
            <g id="Group-7" transform="translate(1127.000000, 21.000000)">
                <path d="M13,16 L13,12 L17,13.9603189 L13,16 Z M22.8308947,11.3736541 C22.8308947,11.3736541 22.6644737,10.295463 22.1544737,9.82089552 C21.5075789,9.19766837 20.7837368,9.19521794 20.4517895,9.15846142 C18.0726842,9 14.5035789,9 14.5035789,9 L14.4964211,9 C14.4964211,9 10.9282105,9 8.54910526,9.15846142 C8.21715789,9.19521794 7.49242105,9.19766837 6.84642105,9.82089552 C6.33552632,10.295463 6.17089474,11.3736541 6.17089474,11.3736541 C6.17089474,11.3736541 6,12.6380783 6,13.904136 L6,15.0909631 C6,16.3562041 6.17089474,17.6222618 6.17089474,17.6222618 C6.17089474,17.6222618 6.33552632,18.6996361 6.84642105,19.1742036 C7.49242105,19.7974308 8.34242105,19.7778273 8.72,19.8431722 C10.0808947,19.9624267 14.5,20 14.5,20 C14.5,20 18.0726842,19.9950991 20.4517895,19.8366377 C20.7837368,19.800698 21.5075789,19.7974308 22.1544737,19.1742036 C22.6644737,18.6996361 22.8308947,17.6222618 22.8308947,17.6222618 C22.8308947,17.6222618 23,16.3562041 23,15.0909631 L23,13.904136 C23,12.6380783 22.8308947,11.3736541 22.8308947,11.3736541 Z" id="Fill-8"></path>
            </g>
        </g>
    </g>
</svg>