
<svg width="60px" height="48px" viewBox="0 0 60 48" version="1.1" xmlns="http://www.w3.org/2000/svg" xmlns:xlink="http://www.w3.org/1999/xlink">
    <!-- Generator: Sketch 49.3 (51167) - http://www.bohemiancoding.com/sketch -->
    <desc>Created with Sketch.</desc>
    <defs></defs>
    <g id="Desktop" stroke="none" stroke-width="1" fill="none" fill-rule="evenodd">
        <g id="Главная" transform="translate(-665.000000, -1814.000000)" stroke-width="2">
            <g id="Group-9" transform="translate(666.000000, 1814.000000)">
                <path d="M34.489,40.5769 C34.489,43.7779 31.894,46.3739 28.692,46.3739 C25.491,46.3739 22.895,43.7779 22.895,40.5769 C22.895,37.3759 25.491,34.7799 28.692,34.7799 C31.894,34.7799 34.489,37.3759 34.489,40.5769 Z" id="Stroke-1" stroke="#3B35A5"></path>
                <path d="M-0.0003,12.8845 C7.3437,5.5415 17.4867,0.9995 28.6917,0.9995 C39.8967,0.9995 50.0417,5.5415 57.3847,12.8845" id="Stroke-3" stroke="#32D69B" stroke-linecap="round" stroke-linejoin="round"></path>
                <path d="M8.198,21.0828 C13.443,15.8378 20.689,12.5938 28.692,12.5938 C36.696,12.5938 43.942,15.8378 49.187,21.0828" id="Stroke-5" stroke="#32D69B" stroke-linecap="round" stroke-linejoin="round"></path>
                <path d="M16.3952,29.28 C19.5422,26.134 23.8902,24.187 28.6922,24.187 C33.4952,24.187 37.8422,26.134 40.9892,29.28" id="Stroke-7" stroke="#32D69B" stroke-linecap="round" stroke-linejoin="round"></path>
            </g>
        </g>
    </g>
</svg>