
<svg width="39px" height="51px" viewBox="0 0 39 51" version="1.1" xmlns="http://www.w3.org/2000/svg" xmlns:xlink="http://www.w3.org/1999/xlink">
    <!-- Generator: Sketch 49.3 (51167) - http://www.bohemiancoding.com/sketch -->
    <desc>Created with Sketch.</desc>
    <defs>
        <polygon id="path-1" points="0 0.614233424 14.2373957 0.614233424 14.2373957 27.4383082 0 27.4383082"></polygon>
        <polygon id="path-3" points="0.12598856 0.180437111 20.798 0.180437111 20.798 23 0.12598856 23"></polygon>
    </defs>
    <g id="Desktop" stroke="none" stroke-width="1" fill="none" fill-rule="evenodd">
        <g id="Главная" transform="translate(-1055.000000, -2131.000000)">
            <g id="Group-15" transform="translate(1055.000000, 2131.000000)">
                <g id="Group-3" transform="translate(0.000000, 19.821600)">
                    <mask id="mask-2" fill="white">
                        <use xlink:href="#path-1"></use>
                    </mask>
                    <g id="Clip-2"></g>
                    <path d="M2.764,16.0073 C1.795,13.1293 1.625,10.0433 2.272,7.0763 C2.838,4.8553 3.935,3.3033 5.394,2.6243 C8.721,5.9053 8.433,9.2973 8.099,13.2103 C7.764,17.1223 7.41,21.4063 11.193,25.5323 C7.904,25.0873 4.363,21.1473 2.764,16.0073 M9.957,13.3673 C10.31,9.1953 10.673,4.8733 6.24,0.8593 C5.99,0.6283 5.632,0.5543 5.311,0.6643 C2.959,1.3983 1.231,3.5083 0.441,6.6213 C-0.29,9.9213 -0.11,13.3593 0.961,16.5653 C2.931,22.8653 7.466,27.4383 11.797,27.4383 C12.403,27.4393 13.004,27.3483 13.581,27.1683 C14.072,27.0173 14.347,26.4973 14.196,26.0063 C14.143,25.8363 14.043,25.6853 13.907,25.5703 C9.26,21.6393 9.595,17.6243 9.957,13.3673" id="Fill-1" fill="#32D69B" mask="url(#mask-2)"></path>
                </g>
                <path d="M15.7376,43.9793 C15.2046,42.6463 15.0726,41.1863 15.3566,39.7793 C15.9366,36.7963 17.3146,34.0283 19.3426,31.7673 C22.3076,28.3103 26.1366,26.1923 29.3336,26.1923 C30.3166,26.1563 31.2876,26.4153 32.1216,26.9353 C31.1086,31.4893 28.0696,33.0503 24.5856,34.8433 C21.0996,36.6373 17.2336,38.5803 15.7376,43.9883 L15.7376,43.9793 Z M13.4986,32.0833 C13.8046,28.3663 14.1306,24.5933 11.1366,20.9873 C14.1386,21.2853 17.4006,24.5003 19.2316,29.1663 C18.7796,29.6053 18.3426,30.0703 17.9216,30.5593 C15.8746,32.8783 14.4206,35.6593 13.6836,38.6643 C13.2486,36.4973 13.1886,34.2713 13.5076,32.0833 L13.4986,32.0833 Z M25.3926,36.4703 C29.1106,34.5553 32.9766,32.5763 34.0266,26.6843 C34.0846,26.3623 33.9676,26.0343 33.7196,25.8203 C32.4876,24.8053 30.9296,24.2703 29.3336,24.3143 C26.5466,24.3143 23.4886,25.6243 20.7186,27.8653 C18.0606,21.6573 13.1346,18.0693 8.8796,19.3793 C8.3886,19.5323 8.1156,20.0533 8.2676,20.5423 C8.3176,20.7043 8.4106,20.8473 8.5356,20.9593 C12.2526,24.3613 11.9926,27.8653 11.6486,31.9353 C11.3506,35.4193 11.0536,39.0163 13.4516,42.6133 C13.6206,44.2573 14.3996,45.7803 15.6346,46.8783 C16.0256,47.2123 16.6116,47.1673 16.9456,46.7763 C17.0606,46.6423 17.1346,46.4773 17.1596,46.3023 C18.0136,40.2713 21.6016,38.4213 25.3926,36.4703 Z" id="Fill-4" fill="#32D69B"></path>
                <g id="Group-8" transform="translate(18.000000, 27.821600)">
                    <mask id="mask-4" fill="white">
                        <use xlink:href="#path-3"></use>
                    </mask>
                    <g id="Clip-7"></g>
                    <path d="M18.806,7.5239 C18.226,10.5049 16.848,13.2749 14.819,15.5349 C11.854,18.9919 8.026,21.1109 4.828,21.1109 C3.844,21.1409 2.872,20.8769 2.04,20.3489 C3.035,14.7729 6.51,12.9149 10.191,11.0549 C13.481,9.3639 16.872,7.6169 18.341,3.1749 C18.941,4.5389 19.106,6.0539 18.815,7.5149 L18.806,7.5239 Z M17.617,0.2479 C17.3,0.3599 17.07,0.6329 17.012,0.9629 C16.082,5.9539 12.988,7.5609 9.364,9.4289 C5.507,11.4089 1.129,13.6579 0.135,20.6559 C0.091,20.9699 0.21,21.2859 0.451,21.4919 C1.684,22.5059 3.242,23.0419 4.837,22.9979 C8.555,22.9979 12.923,20.5999 16.232,16.7429 C18.485,14.2209 20.01,11.1339 20.646,7.8119 C21.148,4.6429 20.404,2.0229 18.536,0.3779 C18.275,0.1729 17.924,0.1239 17.617,0.2479 Z" id="Fill-6" fill="#32D69B" mask="url(#mask-4)"></path>
                </g>
                <path d="M11.0443,14.6287 C11.3533,15.0397 11.9353,15.1227 12.3463,14.8157 C12.7563,14.5067 12.8393,13.9247 12.5313,13.5137 C10.8773,11.3117 11.7603,10.0287 12.9863,8.2637 C14.3623,6.2747 16.0723,3.8117 12.4293,0.3087 C12.0863,-0.0733 11.4983,-0.1043 11.1163,0.2377 C10.7343,0.5817 10.7043,1.1687 11.0473,1.5507 C11.0773,1.5847 11.1113,1.6167 11.1473,1.6467 C13.6473,4.0437 12.7733,5.2987 11.4623,7.2227 C10.2643,8.9597 8.6093,11.3487 11.0443,14.6287" id="Fill-9" fill="#3B35A5"></path>
                <path d="M19.1859,17.4168 C19.4939,17.8278 20.0759,17.9108 20.4869,17.6028 C20.8969,17.2948 20.9809,16.7128 20.6719,16.3018 C19.0179,14.0998 19.9009,12.8168 21.1269,11.0508 C22.5029,9.0628 24.2129,6.5998 20.5699,3.0958 C20.1739,2.7698 19.5879,2.8248 19.2619,3.2218 C18.9689,3.5758 18.9799,4.0918 19.2879,4.4348 C21.7879,6.8318 20.9149,8.0868 19.6039,10.0108 C18.3959,11.7478 16.7319,14.1368 19.1859,17.4168" id="Fill-11" fill="#3B35A5"></path>
                <path d="M27.3079,20.2049 C27.6159,20.6159 28.1979,20.6999 28.6089,20.3919 C29.0199,20.0849 29.1029,19.5019 28.7949,19.0909 L28.7939,19.0899 C27.1409,16.8879 28.0239,15.6039 29.2499,13.8389 C30.6249,11.8509 32.3349,9.3879 28.6929,5.8839 C28.2959,5.5579 27.7109,5.6129 27.3839,6.0099 C27.0909,6.3639 27.1019,6.8799 27.4109,7.2229 C29.9099,9.6199 29.0369,10.8749 27.7259,12.7989 C26.5179,14.5359 24.8639,16.9249 27.3079,20.2049" id="Fill-13" fill="#3B35A5"></path>
            </g>
        </g>
    </g>
</svg>