
<svg width="51px" height="53px" viewBox="0 0 51 53" version="1.1" xmlns="http://www.w3.org/2000/svg" xmlns:xlink="http://www.w3.org/1999/xlink">
    <!-- Generator: Sketch 49.3 (51167) - http://www.bohemiancoding.com/sketch -->
    <desc>Created with Sketch.</desc>
    <defs>
        <polygon id="path-1" points="0.5381 0.5419 28.59 0.5419 28.59 48.9999 0.5381 48.9999"></polygon>
        <polygon id="path-3" points="0.1763 0.716 20.0653 0.716 20.0653 24.0534 0.1763 24.0534"></polygon>
    </defs>
    <g id="Desktop" stroke="none" stroke-width="1" fill="none" fill-rule="evenodd">
        <g id="Главная" transform="translate(-859.000000, -1812.000000)">
            <g id="Group-9" transform="translate(859.000000, 1811.000000)">
                <path d="M22.761,51.2419 L2.042,51.2419 L2.042,48.1509 C2.042,44.7909 4.552,42.0079 7.794,41.5719 L11.68,45.4569 C11.879,45.6559 12.14,45.7559 12.402,45.7559 C12.663,45.7559 12.924,45.6559 13.123,45.4569 L17.009,41.5719 C20.252,42.0079 22.761,44.7909 22.761,48.1509 L22.761,51.2419 Z M8.415,28.1629 L13.597,28.1629 C15.136,28.1629 16.388,29.4149 16.388,30.9539 L16.388,32.0899 L10.285,32.0899 C9.254,32.0899 8.415,31.2509 8.415,30.2209 L8.415,28.1629 Z M14.182,41.5109 L12.402,43.2909 L10.621,41.5109 L14.182,41.5109 Z M8.415,33.6559 C8.971,33.9599 9.609,34.1329 10.285,34.1329 L16.388,34.1329 L16.388,35.4819 C16.388,37.6789 14.6,39.4689 12.402,39.4689 C10.203,39.4689 8.415,37.6789 8.415,35.4819 L8.415,33.6559 Z M16.923,39.5069 C16.913,39.5039 16.903,39.5019 16.892,39.4989 C17.848,38.4309 18.431,37.0239 18.431,35.4819 L18.431,30.9539 C18.431,28.2889 16.262,26.1209 13.597,26.1209 L7.394,26.1209 C6.83,26.1209 6.373,26.5779 6.373,27.1419 L6.373,35.4819 C6.373,37.0239 6.955,38.4309 7.911,39.4989 C7.901,39.5019 7.891,39.5039 7.88,39.5069 C3.468,39.9129 0,43.6349 0,48.1509 L0,52.2629 C0,52.8269 0.457,53.2839 1.021,53.2839 L23.782,53.2839 C24.347,53.2839 24.804,52.8269 24.804,52.2629 L24.804,48.1509 C24.804,43.6349 21.336,39.9129 16.923,39.5069 Z" id="Fill-1" fill="#32D69B"></path>
                <g id="Group-5" transform="translate(22.000000, 4.284000)">
                    <mask id="mask-2" fill="white">
                        <use xlink:href="#path-1"></use>
                    </mask>
                    <g id="Clip-4"></g>
                    <path d="M26.5481,46.9579 L9.2161,46.9579 L9.2161,43.8409 C9.2161,40.1929 12.1841,37.2269 15.8301,37.2269 L19.9341,37.2269 C23.5801,37.2269 26.5481,40.1929 26.5481,43.8409 L26.5481,46.9579 Z M15.2351,35.1849 C13.9931,35.1849 12.9831,34.1739 12.9831,32.9309 L12.9831,28.7789 C12.9831,26.0769 15.1801,23.8789 17.8821,23.8789 C20.5831,23.8789 22.7811,26.0769 22.7811,28.7789 L22.7811,32.9309 C22.7811,34.1729 21.7711,35.1849 20.5281,35.1849 L19.9341,35.1849 L15.8301,35.1849 L15.2351,35.1849 Z M17.4361,18.4259 L5.3851,18.4259 C3.8391,18.4259 2.5801,17.1679 2.5801,15.6209 L2.5801,5.3889 C2.5801,3.8419 3.8391,2.5839 5.3851,2.5839 L21.2611,2.5839 C22.8081,2.5839 24.0661,3.8419 24.0661,5.3889 L24.0661,5.4429 L17.5871,5.4429 C17.0241,5.4429 16.5671,5.8999 16.5671,6.4649 C16.5671,7.0279 17.0241,7.4849 17.5871,7.4849 L24.0661,7.4849 L24.0661,15.6209 C24.0661,17.1679 22.8081,18.4259 21.2611,18.4259 L20.8471,18.4259 C20.2821,18.4259 19.8251,18.8829 19.8251,19.4469 L19.8251,20.3929 L18.1571,18.7249 C17.9661,18.5329 17.7061,18.4259 17.4361,18.4259 Z M23.5511,35.9789 C24.3371,35.1999 24.8241,34.1219 24.8241,32.9309 L24.8241,28.7789 C24.8241,26.4229 23.6431,24.3379 21.8431,23.0829 C21.8601,23.0099 21.8671,22.9349 21.8671,22.8579 L21.8671,20.4309 C24.2551,20.1309 26.1081,18.0889 26.1081,15.6209 L26.1081,5.3889 C26.1081,2.7159 23.9341,0.5419 21.2611,0.5419 L5.3851,0.5419 C2.7121,0.5419 0.5381,2.7159 0.5381,5.3889 L0.5381,15.6209 C0.5381,18.2939 2.7121,20.4679 5.3851,20.4679 L17.0131,20.4679 L18.4021,21.8579 C18.2311,21.8459 18.0581,21.8369 17.8821,21.8369 C14.0541,21.8369 10.9401,24.9509 10.9401,28.7789 L10.9401,32.9309 C10.9401,34.1219 11.4271,35.1999 12.2131,35.9789 C9.2411,37.3529 7.1741,40.3579 7.1741,43.8399 L7.1741,47.9789 C7.1741,48.5429 7.6311,48.9999 8.1951,48.9999 L27.5691,48.9999 C28.1331,48.9999 28.5901,48.5429 28.5901,47.9789 L28.5901,43.8409 C28.5901,40.3579 26.5231,37.3529 23.5511,35.9789 Z" id="Fill-3" fill="#32D69B" mask="url(#mask-2)"></path>
                </g>
                <g id="Group-8" transform="translate(4.000000, 0.284000)">
                    <mask id="mask-4" fill="white">
                        <use xlink:href="#path-3"></use>
                    </mask>
                    <g id="Clip-7"></g>
                    <path d="M4.4163,20.6044 L4.4163,23.0324 C4.4163,23.4454 4.6653,23.8184 5.0463,23.9754 C5.1733,24.0284 5.3053,24.0534 5.4373,24.0534 C5.7023,24.0534 5.9643,23.9504 6.1593,23.7544 L9.2703,20.6424 L14.5783,20.6424 C15.1423,20.6424 15.5993,20.1854 15.5993,19.6214 C15.5993,19.0574 15.1423,18.6004 14.5783,18.6004 L8.8483,18.6004 C8.5773,18.6004 8.3173,18.7084 8.1263,18.8994 L6.4583,20.5674 L6.4583,19.6214 C6.4583,19.0574 6.0013,18.6004 5.4373,18.6004 L5.0223,18.6004 C3.4773,18.6004 2.2183,17.3414 2.2183,15.7954 L2.2183,5.5624 C2.2183,4.0164 3.4773,2.7584 5.0223,2.7584 L19.0443,2.7584 C19.6083,2.7584 20.0653,2.3004 20.0653,1.7374 C20.0653,1.1724 19.6083,0.7154 19.0443,0.7154 L5.0223,0.7154 C2.3503,0.7154 0.1763,2.8904 0.1763,5.5624 L0.1763,15.7954 C0.1763,18.2624 2.0283,20.3054 4.4163,20.6044" id="Fill-6" fill="#3B35A5" mask="url(#mask-4)"></path>
                </g>
            </g>
        </g>
    </g>
</svg>