
<svg width="50px" height="44px" viewBox="0 0 50 44" version="1.1" xmlns="http://www.w3.org/2000/svg" xmlns:xlink="http://www.w3.org/1999/xlink">
    <!-- Generator: Sketch 49.3 (51167) - http://www.bohemiancoding.com/sketch -->
    <desc>Created with Sketch.</desc>
    <defs></defs>
    <g id="Desktop" stroke="none" stroke-width="1" fill="none" fill-rule="evenodd">
        <g id="Главная" transform="translate(-670.000000, -2139.000000)" stroke-width="2">
            <g id="Group-17" transform="translate(671.000000, 2140.000000)">
                <path d="M33.3999,6.8177 L38.3919,6.8177 C39.1539,6.8177 39.7709,7.4787 39.7709,8.2947 L39.7709,11.3637 L7.3859,11.3637 L7.3859,8.2947 C7.3859,7.4787 8.0039,6.8177 8.7649,6.8177 L13.7569,6.8177" id="Stroke-3" stroke="#32D69B"></path>
                <path d="M34.0893,11.3636 L13.0683,11.3636 L13.0683,3.1436 C13.0683,1.4076 14.4753,0.0006 16.2123,0.0006 L30.9453,0.0006 C32.6823,0.0006 34.0893,1.4076 34.0893,3.1436 L34.0893,11.3636 Z" id="Stroke-1" stroke="#3B35A5"></path>
                <path d="M13.0678,34.0892 L3.5728,34.0892 C1.5998,34.0892 0.0008,32.4892 0.0008,30.5172 L0.0008,14.9362 C0.0008,12.9632 1.5998,11.3632 3.5728,11.3632 L43.5848,11.3632 C45.5568,11.3632 47.1578,12.9632 47.1578,14.9362 L47.1578,30.5172 C47.1578,32.4892 45.5568,34.0892 43.5848,34.0892 L34.0888,34.0892" id="Stroke-7" stroke="#32D69B"></path>
                <path d="M34.0893,41.6116 L13.0683,41.6116 L13.0683,29.4496 C13.0683,27.7136 14.4753,26.3056 16.2123,26.3056 L30.9453,26.3056 C32.6823,26.3056 34.0893,27.7136 34.0893,29.4496 L34.0893,41.6116 Z" id="Stroke-5" stroke="#3B35A5" stroke-linejoin="round"></path>
                <path d="M6.7124,17.9524 L14.2034,17.9524" id="Stroke-9" stroke="#32D69B" stroke-linecap="round" stroke-linejoin="round"></path>
                <path d="M18.1284,30.6175 L29.0284,30.6175" id="Stroke-11" stroke="#32D69B" stroke-linecap="round" stroke-linejoin="round"></path>
                <path d="M18.1284,34.0267 L29.0284,34.0267" id="Stroke-13" stroke="#32D69B" stroke-linecap="round" stroke-linejoin="round"></path>
                <path d="M18.1284,37.4349 L29.0284,37.4349" id="Stroke-15" stroke="#32D69B" stroke-linecap="round" stroke-linejoin="round"></path>
            </g>
        </g>
    </g>
</svg>