
<svg width="53px" height="53px" viewBox="0 0 53 53" version="1.1" xmlns="http://www.w3.org/2000/svg" xmlns:xlink="http://www.w3.org/1999/xlink">
    <!-- Generator: Sketch 49.3 (51167) - http://www.bohemiancoding.com/sketch -->
    <desc>Created with Sketch.</desc>
    <defs></defs>
    <g id="Desktop" stroke="none" stroke-width="1" fill="none" fill-rule="evenodd">
        <g id="Главная" transform="translate(-858.000000, -1981.000000)">
            <g id="Group-5" transform="translate(858.000000, 1980.000000)">
                <path d="M1.759,28.2745 L51.03,28.2745 L51.03,26.5145 L1.759,26.5145 L1.759,28.2745 Z M3.519,52.0305 L49.27,52.0305 L49.27,30.0345 L3.519,30.0345 L3.519,52.0305 Z M2.639,24.7545 L7.918,24.7545 L7.918,23.8745 L2.639,23.8745 L2.639,24.7545 Z M3.645,21.6755 C3.645,20.9475 4.236,20.3565 4.965,20.3565 L5.593,20.3565 C6.322,20.3565 6.913,20.9475 6.913,21.6755 L6.913,22.1165 L3.645,22.1165 L3.645,21.6755 Z M16.716,8.9175 C16.716,5.5165 19.474,2.7595 22.875,2.7595 C26.277,2.7595 29.035,5.5165 29.035,8.9175 L29.035,18.1245 C28.181,17.8525 27.29,17.7145 26.395,17.7165 C26.377,17.7165 26.363,17.7255 26.346,17.7265 C26.287,17.7315 26.228,17.7435 26.17,17.7615 C26.116,17.7725 26.062,17.7895 26.011,17.8105 C25.966,17.8365 25.924,17.8665 25.884,17.8985 C25.832,17.9335 25.784,17.9735 25.74,18.0195 C25.73,18.0305 25.714,18.0375 25.705,18.0485 L24.254,19.8635 C23.599,20.6245 22.451,20.7105 21.69,20.0555 C21.621,19.9975 21.556,19.9325 21.497,19.8635 L20.043,18.0465 C20.033,18.0335 20.017,18.0285 20.006,18.0155 C19.964,17.9725 19.918,17.9335 19.869,17.8995 C19.826,17.8665 19.781,17.8365 19.734,17.8115 C19.685,17.7915 19.636,17.7765 19.585,17.7645 C19.526,17.7465 19.464,17.7335 19.402,17.7285 C19.386,17.7285 19.372,17.7195 19.356,17.7195 C18.46,17.7175 17.57,17.8555 16.716,18.1275 L16.716,8.9175 Z M23.755,22.1665 C24.494,21.9805 25.151,21.5575 25.627,20.9625 L26.803,19.4945 C27.689,19.5335 28.557,19.7515 29.355,20.1385 C29.441,20.2125 29.541,20.2685 29.65,20.3035 C31.261,21.2415 32.322,22.8995 32.496,24.7545 L23.755,24.7545 L21.996,24.7545 L13.255,24.7545 C13.43,22.8995 14.49,21.2415 16.101,20.3035 C16.21,20.2685 16.313,20.2125 16.401,20.1385 C17.199,19.7515 18.067,19.5335 18.953,19.4945 L20.127,20.9625 C20.603,21.5565 21.259,21.9795 21.996,22.1665 L23.755,22.1665 Z M34.27,24.7545 C34.088,22.3785 32.801,20.2255 30.793,18.9405 L30.793,8.9175 C30.793,4.5445 27.248,0.9995 22.875,0.9995 C18.502,0.9995 14.957,4.5445 14.957,8.9175 L14.957,18.9405 C12.95,20.2255 11.663,22.3785 11.481,24.7545 L9.678,24.7545 L9.678,22.9955 C9.678,22.5095 9.285,22.1165 8.798,22.1165 L8.672,22.1165 L8.672,21.6755 C8.67,20.1955 7.615,18.9255 6.159,18.6535 L6.159,18.5965 C6.159,18.1105 5.765,17.7165 5.279,17.7165 C4.793,17.7165 4.399,18.1105 4.399,18.5965 L4.399,18.6535 C2.944,18.9255 1.888,20.1955 1.885,21.6755 L1.885,22.1165 L1.759,22.1165 C1.274,22.1165 0.879,22.5095 0.879,22.9955 L0.879,24.7545 C0.394,24.7545 0,25.1495 0,25.6345 L0,29.1545 C0,29.6405 0.394,30.0345 0.879,30.0345 L1.759,30.0345 L1.759,52.9105 C1.759,53.3955 2.154,53.7895 2.639,53.7895 L50.15,53.7895 C50.636,53.7895 51.03,53.3955 51.03,52.9105 L51.03,30.0345 L51.91,30.0345 C52.396,30.0345 52.79,29.6405 52.79,29.1545 L52.79,25.6345 C52.79,25.1495 52.396,24.7545 51.91,24.7545 L34.27,24.7545 Z" id="Fill-1" fill="#32D69B"></path>
                <path d="M19.3559,10.5967 C20.5329,10.3527 21.5619,9.6447 22.2109,8.6337 C23.4959,9.3407 24.9299,9.7287 26.3949,9.7677 L26.3949,12.5827 C26.3949,14.5267 24.8189,16.1027 22.8759,16.1027 C20.9319,16.1027 19.3559,14.5267 19.3559,12.5827 L19.3559,10.5967 Z M22.8759,17.8677 C25.7899,17.8637 28.1509,15.5017 28.1549,12.5877 L28.1549,8.9177 C28.1549,8.4327 27.7599,8.0377 27.2749,8.0377 C25.7189,8.0377 23.2149,7.6297 22.7829,6.7657 C22.6219,6.4507 22.2899,6.2627 21.9379,6.2837 C21.5839,6.3067 21.2779,6.5397 21.1629,6.8757 C20.7649,8.0387 19.7039,8.8467 18.4759,8.9177 C17.9909,8.9177 17.5959,9.3127 17.5959,9.7977 L17.5959,12.5857 C17.5999,15.4997 19.9609,17.8627 22.8759,17.8657 L22.8759,17.8677 Z" id="Fill-3" fill="#32D69B"></path>
                <path d="M37.832,21.2365 L50.149,21.2365 L50.149,13.3175 L37.832,13.3175 L37.832,21.2365 Z M44.872,24.7545 L44.872,22.9955 L51.03,22.9955 C51.516,22.9955 51.91,22.6015 51.91,22.1165 L51.91,12.4375 C51.91,11.9525 51.516,11.5575 51.03,11.5575 L36.953,11.5575 C36.467,11.5575 36.073,11.9525 36.073,12.4375 L36.073,22.1165 C36.073,22.6015 36.467,22.9955 36.953,22.9955 L43.112,22.9955 L43.112,24.7545 L44.872,24.7545 Z" id="Fill-4" fill="#3A30A8"></path>
            </g>
        </g>
    </g>
</svg>