
<svg width="60px" height="34px" viewBox="0 0 60 34" version="1.1" xmlns="http://www.w3.org/2000/svg" xmlns:xlink="http://www.w3.org/1999/xlink">
    <!-- Generator: Sketch 49.3 (51167) - http://www.bohemiancoding.com/sketch -->
    <desc>Created with Sketch.</desc>
    <defs>
        <polygon id="path-1" points="0.0001 0.857 59.288 0.857 59.288 28.054 0.0001 28.054"></polygon>
    </defs>
    <g id="Desktop" stroke="none" stroke-width="1" fill="none" fill-rule="evenodd">
        <g id="Главная" transform="translate(-855.000000, -2148.000000)">
            <g id="Group-6" transform="translate(855.000000, 2147.000000)">
                <g id="Group-3" transform="translate(0.000000, 0.142700)">
                    <mask id="mask-2" fill="white">
                        <use xlink:href="#path-1"></use>
                    </mask>
                    <g id="Clip-2"></g>
                    <path d="M53.1691,26.317 L6.1191,26.317 C3.7021,26.317 1.7371,24.351 1.7371,21.935 L1.7371,12.867 C1.7371,12.205 2.2751,11.666 2.9391,11.666 L7.4881,11.666 C8.1501,11.666 8.6891,12.205 8.6891,12.867 L8.6891,20.402 C8.6891,20.881 9.0781,21.27 9.5581,21.27 L44.9311,21.27 L44.9321,21.27 L49.7301,21.27 C50.2091,21.27 50.5981,20.881 50.5981,20.402 L50.5981,12.867 C50.5981,12.205 51.1371,11.666 51.8001,11.666 L56.3501,11.666 C57.0121,11.666 57.5511,12.205 57.5511,12.867 L57.5511,21.935 C57.5511,24.351 55.5851,26.317 53.1691,26.317 Z M28.7751,18.298 L28.7751,19.534 L10.4271,19.534 L10.4271,14.41 L24.8871,14.41 C27.0311,14.41 28.7751,16.154 28.7751,18.298 Z M5.8531,5.55 C5.8531,3.921 7.1791,2.594 8.8101,2.594 L11.1061,2.594 L25.8191,2.594 C27.4491,2.594 28.7751,3.921 28.7751,5.55 L28.7751,14.237 C28.7581,14.219 28.7381,14.203 28.7201,14.186 C27.6901,13.226 26.2951,12.672 24.8871,12.672 L10.4201,12.672 C10.3441,11.506 9.5491,10.481 8.4521,10.091 C8.1431,9.982 7.8161,9.928 7.4881,9.928 L5.8531,9.928 L5.8531,5.55 Z M30.5131,18.298 C30.5131,16.154 32.2571,14.41 34.4011,14.41 L48.8611,14.41 L48.8611,19.534 L46.2131,19.534 L46.2121,19.534 L30.5131,19.534 L30.5131,18.298 Z M30.5131,5.551 C30.5131,3.921 31.8391,2.594 33.4691,2.594 L50.4791,2.594 C52.1081,2.594 53.4351,3.921 53.4351,5.551 L53.4351,9.928 L51.8001,9.928 C50.6451,9.928 49.5371,10.67 49.0891,11.733 C48.9641,12.031 48.8891,12.35 48.8671,12.672 L34.4011,12.672 C32.9711,12.672 31.5461,13.249 30.5131,14.237 L30.5131,5.551 Z M52.7321,28.054 L53.1691,28.054 C56.5431,28.054 59.2881,25.309 59.2881,21.935 L59.2881,12.867 C59.2881,11.247 57.9701,9.928 56.3501,9.928 L55.1721,9.928 L55.1721,5.55 C55.1721,2.963 53.0661,0.857 50.4791,0.857 L33.4691,0.857 C31.8921,0.857 30.4951,1.64 29.6441,2.836 C28.7931,1.639 27.3961,0.857 25.8191,0.857 L11.6601,0.857 L11.6591,0.857 L8.8101,0.857 C6.2221,0.857 4.1161,2.963 4.1161,5.55 L4.1161,9.928 L2.9391,9.928 C1.3171,9.928 0.0001,11.247 0.0001,12.867 L0.0001,21.935 C0.0001,25.309 2.7451,28.054 6.1191,28.054 L6.5561,28.054 L52.7321,28.054 Z" id="Fill-1" fill="#32D69B" mask="url(#mask-2)"></path>
                </g>
                <path d="M6.5558,28.197 C6.5558,28.197 5.6048,30.755 5.6038,30.757 C5.0038,32.37 6.2388,34.142 7.9568,34.142 L9.3548,34.142 C10.1368,34.142 10.8848,33.77 11.3578,33.146 L15.1018,28.197 L12.9228,28.197 L9.9718,32.098 C9.8268,32.291 9.5958,32.406 9.3548,32.406 L7.9568,32.406 C7.4258,32.406 7.0468,31.86 7.2318,31.362 L8.4088,28.197 L6.5558,28.197 Z M50.8798,28.197 C50.8798,28.197 52.0518,31.351 52.0558,31.362 C52.2428,31.861 51.8608,32.406 51.3298,32.406 L49.9338,32.406 C49.6928,32.406 49.4618,32.291 49.3168,32.098 L46.3658,28.197 L44.1878,28.197 L47.9308,33.146 C48.4028,33.77 49.1518,34.142 49.9338,34.142 L51.3298,34.142 C53.0518,34.142 54.2848,32.37 53.6838,30.757 L52.7328,28.197 L50.8798,28.197 Z" id="Fill-4" fill="#3A30A8"></path>
            </g>
        </g>
    </g>
</svg>